<svg xmlns="http://www.w3.org/2000/svg" width="1023.356" height="362.933" viewBox="0 0 1023.356 362.933"><defs><clipPath id="a" clipPathUnits="userSpaceOnUse"><path d="M0 272.2h767.517V0H0Z"/></clipPath></defs><g clip-path="url(#a)" transform="matrix(1.33333 0 0 -1.33333 0 362.933)"><path fill="#000" d="M78.866 141.6c-.843-6.981 3.017-10.247 7.64-10.986 4.972-.937 9.762 2.335 10.701 7.308.067.357.112.716.137 1.079l6.678 41.633 12.716-2.037-6.675-41.633c-2.166-13.522-13.593-19.9-25.783-17.943-11.47 1.84-19.34 10.212-18.414 22.757ZM119.273 147.661l21.465 59.3 12.113-4.382-21.475-59.297ZM194.587 177.792l12.775 1.71 8.37-62.508-24.828-3.322-26.306 57.283 8.004-59.735-12.769-1.712-8.372 62.508 24.74 3.308 26.396-57.268zM246.853 164.915h22.254l-11.081 34.15Zm30.45-25.135-4.504 13.7h-29.632l-4.42-13.7h-13.064l21.268 63.068h22.878l21.26-63.068zM292.558 94.118c-1.776-17.641-17.517-30.503-35.158-28.726-1.605.16-3.192.443-4.754.843-17.45 3.676-28.615 20.8-24.94 38.25.07.333.146.666.227.998 4.066 17.368 21.443 28.154 38.811 24.087.326-.076.65-.157.972-.243a31.96 31.96 0 0 0 24.404-24.635l-12.635-1.703a19.373 19.373 0 0 1-14.514 14.857c-10.738 2.492-21.464-4.193-23.957-14.931a41.696 41.696 0 0 1-.115-.533c-2.922-10.623 3.321-21.604 13.944-24.526.18-.05.362-.096.545-.141a17.838 17.838 0 0 1 20.667 8.584L253.36 91.72l2.657 11.129zM363.99 155.377c.127-2.641 1.824-3.71 3.773-3.71 2.357 0 3.804 1.73 3.804 4.15v14.962h3.457v-14.962c0-4.463-3.112-7.356-7.355-7.356-3.835 0-6.821 2.295-7.167 6.413zM378.421 164.838h3.3v-16.062h-3.3zm1.666 6.664a2.04 2.04 0 0 0 2.043-2.043 2.04 2.04 0 0 0-2.043-2.044c-1.132 0-2.075.912-2.075 2.044 0 1.131.943 2.043 2.075 2.043M400.675 158.363v-9.587h-3.3v9.084c0 2.483-1.824 4.275-4.15 4.275-2.64 0-4.495-1.792-4.495-4.275v-9.084h-3.3v23.26h3.3V160.69c.881 2.735 2.987 4.464 5.753 4.464 3.678 0 6.192-2.861 6.192-6.79M412.15 151.51c2.924 0 5.125 2.264 5.125 5.282 0 3.049-2.201 5.312-5.124 5.312-2.892 0-5.124-2.263-5.124-5.312 0-3.018 2.232-5.281 5.124-5.281m0 13.642c4.84 0 8.519-3.615 8.519-8.361 0-4.716-3.678-8.33-8.52-8.33-4.84 0-8.517 3.614-8.517 8.33 0 4.746 3.677 8.36 8.518 8.36M448.458 158.363v-9.587h-3.3v9.084c0 2.483-1.572 4.275-3.553 4.275-2.263 0-3.866-1.792-3.866-4.275v-9.084h-3.3v9.084c0 2.483-1.54 4.275-3.52 4.275-2.264 0-3.867-1.792-3.867-4.275v-9.084h-3.3v16.063h3.3v-3.93c.85 2.578 2.703 4.244 5.124 4.244 2.61 0 4.557-1.792 5.281-4.464.754 2.703 2.766 4.464 5.343 4.464 3.332 0 5.658-2.861 5.658-6.79M459.902 151.51c2.923 0 5.124 2.264 5.124 5.282 0 3.049-2.201 5.312-5.124 5.312-2.892 0-5.124-2.263-5.124-5.312 0-3.018 2.232-5.281 5.124-5.281m0 13.642c4.841 0 8.519-3.615 8.519-8.361 0-4.716-3.678-8.33-8.519-8.33-4.84 0-8.518 3.614-8.518 8.33 0 4.746 3.678 8.36 8.518 8.36M474.804 160.595c1.13 4.023 3.677 4.998 6.286 4.369v-3.143c-3.52.974-6.286-.88-6.286-3.961v-9.084h-3.301v16.063h3.3ZM492.501 155.69v.88c-.283-.47-.88-.69-1.823-.784l-3.049-.378c-1.54-.188-2.609-.911-2.609-2.2 0-1.257 1.038-2.075 2.61-2.075 2.765 0 4.871 2.2 4.871 4.558m3.301 3.615v-10.53h-3.3v4.275c-1.007-3.143-3.08-4.59-5.94-4.59-2.673 0-4.842 1.73-4.842 4.496 0 3.394 2.891 4.683 5.91 4.998l3.111.314c1.163.094 1.76.534 1.76 1.57 0 1.573-1.352 2.547-3.237 2.547-1.887 0-3.395-.943-3.804-2.954l-3.269.785c.598 2.987 3.332 4.935 7.073 4.935 3.71 0 6.538-1.948 6.538-5.846M510.483 164.838h3.364l-5.627-16.062h-5.595l-5.626 16.062h3.583l4.966-15.057zM517.463 153.71c.283-1.665 1.51-2.577 3.521-2.577 2.105 0 3.49.943 3.49 2.169 0 3.709-9.84.692-9.84 6.978 0 2.798 2.704 4.872 6.35 4.872 3.677 0 6.098-1.791 6.57-4.557l-3.3-.692c-.253 1.666-1.416 2.578-3.27 2.578-1.76 0-3.018-.817-3.018-2.043 0-3.584 9.84-.598 9.84-7.073 0-2.83-2.988-4.904-6.822-4.904-3.867 0-6.318 1.792-6.82 4.559zM546.037 148.776h-4.18l-5.47 6.915-2.515-2.703v-4.212h-3.3v23.26h3.3v-14.71l6.79 7.512h4.15l-6.193-6.695ZM558.675 171.974l-3.709-5.03h-3.363l3.394 5.03Zm-1.414-16.283v.88c-.283-.471-.88-.691-1.823-.785l-3.05-.377c-1.54-.19-2.609-.912-2.609-2.201 0-1.257 1.038-2.074 2.609-2.074 2.766 0 4.873 2.2 4.873 4.557m3.3 3.616v-10.531h-3.3v4.275c-1.006-3.143-3.081-4.59-5.941-4.59-2.672 0-4.841 1.73-4.841 4.496 0 3.394 2.892 4.684 5.909 4.998l3.112.314c1.163.094 1.761.535 1.761 1.572 0 1.57-1.352 2.546-3.238 2.546s-3.395-.943-3.803-2.955l-3.27.786c.598 2.986 3.332 4.935 7.073 4.935 3.709 0 6.538-1.95 6.538-5.846M583.384 155.69v.88c-.283-.47-.88-.69-1.823-.784l-3.05-.378c-1.54-.188-2.608-.911-2.608-2.2 0-1.257 1.037-2.075 2.608-2.075 2.767 0 4.873 2.2 4.873 4.558m3.3 3.615v-10.53h-3.3v4.275c-1.006-3.143-3.081-4.59-5.941-4.59-2.672 0-4.841 1.73-4.841 4.496 0 3.394 2.892 4.683 5.909 4.998l3.112.314c1.163.094 1.761.534 1.761 1.57 0 1.573-1.352 2.547-3.238 2.547s-3.395-.943-3.803-2.954l-3.27.785c.598 2.987 3.332 4.935 7.073 4.935 3.709 0 6.538-1.948 6.538-5.846M603.25 156.98c0 2.923-2.2 5.124-5.185 5.124-2.83 0-5.061-2.201-5.061-5.124 0-2.923 2.232-5.155 5.06-5.155 2.987 0 5.187 2.232 5.187 5.155m0 7.858h3.3v-14.333c0-4.715-3.677-8.33-8.518-8.33-3.49 0-6.223 1.854-7.544 4.526l2.987 1.478c.848-1.824 2.45-2.987 4.557-2.987 2.892 0 5.218 2.264 5.218 5.313v3.143c-1.006-2.892-3.332-4.841-6.381-4.841-4.15 0-7.261 3.52-7.261 8.173 0 4.62 3.112 8.172 7.26 8.172 3.05 0 5.376-1.948 6.382-4.872zM613.06 158.268h9.87c-.534 2.326-2.39 4.023-4.935 4.023-2.452 0-4.37-1.666-4.935-4.023m13.202-2.578h-13.296c.47-2.546 2.514-4.369 5.28-4.369 2.107 0 3.835 1.101 4.747 2.861l2.766-1.226c-1.383-2.64-4.086-4.495-7.607-4.495-4.84 0-8.518 3.615-8.518 8.33 0 4.746 3.615 8.361 8.36 8.361 5.156 0 8.865-4.212 8.268-9.462M644.683 158.363v-9.587h-3.3v9.084c0 2.483-1.824 4.275-4.15 4.275-2.64 0-4.495-1.792-4.495-4.275v-9.084h-3.3v16.063h3.3v-4.15c.881 2.735 2.987 4.464 5.753 4.464 3.677 0 6.192-2.861 6.192-6.79M646.226 161.915v2.923h3.426v5.218l3.3 1.037v-6.255h4.527v-2.923h-4.526v-7.418c0-1.949.817-2.798 2.766-2.798h1.76v-2.923h-1.76c-4.15 0-6.067 1.917-6.067 5.878v7.261ZM659.931 164.838h3.301v-9.398c0-2.358 1.697-3.93 4.023-3.93 2.263 0 3.992 1.572 3.992 3.93v9.398h3.301v-9.398c0-4.15-3.113-6.979-7.293-6.979-4.243 0-7.324 2.83-7.324 6.98zM681.434 160.595c1.13 4.023 3.677 4.998 6.286 4.369v-3.143c-3.52.974-6.286-.88-6.286-3.961v-9.084h-3.301v16.063h3.3ZM699.131 155.69v.88c-.283-.47-.88-.69-1.823-.784l-3.049-.378c-1.54-.188-2.609-.911-2.609-2.2 0-1.257 1.038-2.075 2.609-2.075 2.766 0 4.872 2.2 4.872 4.558m3.301 3.615v-10.53h-3.301v4.275c-1.006-3.143-3.08-4.59-5.94-4.59-2.672 0-4.841 1.73-4.841 4.496 0 3.394 2.891 4.683 5.909 4.998l3.112.314c1.163.094 1.76.534 1.76 1.57 0 1.573-1.352 2.547-3.237 2.547-1.887 0-3.395-.943-3.804-2.954l-3.269.785c.598 2.987 3.332 4.935 7.073 4.935 3.709 0 6.538-1.948 6.538-5.846M375.307 120.2c0 3.05-2.2 5.312-4.935 5.312-3.08 0-5.281-2.263-5.281-5.312 0-3.018 2.2-5.28 5.28-5.28 2.736 0 4.936 2.262 4.936 5.28m3.426 0c0-4.715-3.112-8.33-7.26-8.33-3.05 0-5.376 1.98-6.382 4.966v-10.938h-3.3v22.35h3.3v-4.653c1.006 2.986 3.332 4.966 6.382 4.966 4.148 0 7.26-3.615 7.26-8.36M385.116 124.003c1.131 4.023 3.677 4.998 6.286 4.37v-3.144c-3.52.974-6.286-.88-6.286-3.96v-9.085h-3.3v16.063h3.3ZM400.394 114.92c2.923 0 5.124 2.262 5.124 5.28 0 3.05-2.201 5.312-5.124 5.312-2.892 0-5.124-2.263-5.124-5.312 0-3.018 2.232-5.28 5.124-5.28m0 13.641c4.84 0 8.519-3.615 8.519-8.36 0-4.717-3.678-8.33-8.52-8.33-4.84 0-8.517 3.613-8.517 8.33 0 4.745 3.677 8.36 8.518 8.36M433.024 128.247h3.364l-5.627-16.062h-5.595l-5.626 16.062h3.583l4.966-15.057zM440.067 121.677h9.87c-.534 2.326-2.39 4.023-4.935 4.023-2.452 0-4.37-1.666-4.935-4.023m13.202-2.577h-13.296c.47-2.547 2.514-4.37 5.28-4.37 2.107 0 3.835 1.1 4.747 2.861l2.766-1.226c-1.383-2.64-4.086-4.495-7.607-4.495-4.84 0-8.518 3.615-8.518 8.33 0 4.746 3.615 8.361 8.36 8.361 5.156 0 8.865-4.212 8.268-9.46M459.745 124.003c1.132 4.023 3.678 4.998 6.287 4.37v-3.144c-3.52.974-6.287-.88-6.287-3.96v-9.085h-3.3v16.063h3.3Zm2.735 6.35h-3.709l-3.552 5.03h3.174l2.232-2.924 2.232 2.923h3.175zM469.93 121.677h9.87c-.534 2.326-2.388 4.023-4.934 4.023-2.452 0-4.37-1.666-4.935-4.023m13.202-2.577h-13.297c.472-2.547 2.515-4.37 5.28-4.37 2.107 0 3.836 1.1 4.748 2.861l2.766-1.226c-1.384-2.64-4.087-4.495-7.607-4.495-4.841 0-8.518 3.615-8.518 8.33 0 4.746 3.614 8.361 8.36 8.361 5.156 0 8.865-4.212 8.268-9.46M487.912 134.91a2.039 2.039 0 0 0 2.043-2.042 2.038 2.038 0 0 0-2.043-2.043c-1.13 0-2.074.91-2.074 2.043 0 1.13.943 2.043 2.074 2.043m-4.558-26.31c2.327-.062 2.892.598 2.892 2.86v16.786h3.301v-16.785c0-3.458-1.415-6.067-6.193-5.815zM508.502 121.772v-9.588h-3.3v9.085c0 2.482-1.824 4.274-4.15 4.274-2.64 0-4.494-1.791-4.494-4.274v-9.085h-3.3v16.064h3.3v-4.15c.88 2.734 2.986 4.463 5.752 4.463 3.677 0 6.192-2.86 6.192-6.79M524.63 135.382l-3.71-5.029h-3.364l3.395 5.03Zm-9.745-13.705h9.87c-.535 2.326-2.389 4.023-4.936 4.023-2.45 0-4.369-1.666-4.934-4.023m13.202-2.577H514.79c.472-2.547 2.515-4.37 5.281-4.37 2.106 0 3.835 1.1 4.746 2.861l2.767-1.226c-1.384-2.64-4.087-4.495-7.607-4.495-4.84 0-8.518 3.615-8.518 8.33 0 4.746 3.614 8.361 8.36 8.361 5.156 0 8.865-4.212 8.268-9.46M540.694 128.247h3.301v-16.062h-3.301zm1.666 6.664a2.04 2.04 0 0 0 2.043-2.043 2.04 2.04 0 0 0-2.043-2.044c-1.132 0-2.075.912-2.075 2.044 0 1.131.943 2.043 2.075 2.043M562.949 121.772v-9.588h-3.3v9.085c0 2.482-1.824 4.274-4.15 4.274-2.64 0-4.495-1.791-4.495-4.274v-9.085h-3.3v16.064h3.3v-4.15c.88 2.735 2.987 4.463 5.753 4.463 3.677 0 6.192-2.86 6.192-6.79M574.424 114.92c2.923 0 5.124 2.262 5.124 5.28 0 3.05-2.201 5.312-5.124 5.312-2.892 0-5.124-2.263-5.124-5.312 0-3.018 2.232-5.28 5.124-5.28m0 13.641c4.841 0 8.519-3.615 8.519-8.36 0-4.717-3.678-8.33-8.519-8.33s-8.518 3.613-8.518 8.33c0 4.745 3.677 8.36 8.518 8.36M596.68 128.247h3.364l-5.627-16.062h-5.594l-5.627 16.062h3.583l4.967-15.057zM611.236 119.1v.88c-.284-.472-.88-.692-1.823-.786l-3.05-.377c-1.54-.189-2.609-.912-2.609-2.2 0-1.258 1.038-2.075 2.61-2.075 2.765 0 4.871 2.2 4.871 4.558m3.302 3.615v-10.53h-3.302v4.274c-1.006-3.143-3.08-4.589-5.94-4.589-2.672 0-4.84 1.73-4.84 4.495 0 3.395 2.89 4.684 5.908 4.998l3.112.314c1.163.094 1.76.535 1.76 1.572 0 1.572-1.351 2.546-3.236 2.546-1.888 0-3.395-.943-3.805-2.955l-3.269.786c.598 2.986 3.332 4.935 7.073 4.935 3.71 0 6.538-1.949 6.538-5.846M625.98 128.561c3.458 0 6.38-1.886 7.7-5.061l-3.048-1.037c-.817 1.886-2.546 3.049-4.652 3.049-2.892 0-5.124-2.263-5.124-5.312 0-3.017 2.232-5.281 5.124-5.281 2.106 0 3.835 1.132 4.652 3.049l3.049-1.037c-1.32-3.175-4.243-5.061-7.701-5.061-4.841 0-8.518 3.615-8.518 8.33 0 4.746 3.677 8.361 8.518 8.361M639.246 121.677h9.87c-.534 2.326-2.389 4.023-4.935 4.023-2.452 0-4.369-1.666-4.935-4.023m13.202-2.577h-13.296c.471-2.547 2.514-4.37 5.281-4.37 2.106 0 3.834 1.1 4.746 2.861l2.766-1.226c-1.383-2.64-4.086-4.495-7.607-4.495-4.84 0-8.518 3.615-8.518 8.33 0 4.746 3.615 8.361 8.361 8.361 5.155 0 8.864-4.212 8.267-9.46"/></g></svg>
