<svg xmlns="http://www.w3.org/2000/svg" width="1800.5" height="841" viewBox="0 0 1800.5 841"><g id="Group_317" data-name="Group 317" transform="translate(0 -239.5)"><g id="Component_54_4" data-name="Component 54 – 4" transform="translate(120 240)"><g id="Group_152" data-name="Group 152" transform="translate(-120 -1729)"><g id="Group_158" data-name="Group 158" transform="translate(0 720)"><g id="Component_53_87" data-name="Component 53 – 87" transform="translate(120 1729)"><path id="Rectangle_649" data-name="Rectangle 649" fill="none" stroke="#dddbfd" stroke-width="1" d="M0 0h120v120H0z"/></g><g id="Component_53_88" data-name="Component 53 – 88" transform="translate(240 1729)"><path id="Rectangle_649-2" data-name="Rectangle 649" fill="none" stroke="#dddbfd" stroke-width="1" d="M0 0h120v120H0z"/></g><g id="Component_53_89" data-name="Component 53 – 89" transform="translate(360 1729)"><path id="Rectangle_649-3" data-name="Rectangle 649" fill="none" stroke="#dddbfd" stroke-width="1" d="M0 0h120v120H0z"/></g><g id="Component_53_90" data-name="Component 53 – 90" transform="translate(480 1729)"><path id="Rectangle_649-4" data-name="Rectangle 649" fill="none" stroke="#dddbfd" stroke-width="1" d="M0 0h120v120H0z"/></g><g id="Component_53_91" data-name="Component 53 – 91" transform="translate(600 1729)"><path id="Rectangle_649-5" data-name="Rectangle 649" fill="none" stroke="#dddbfd" stroke-width="1" d="M0 0h120v120H0z"/></g><g id="Component_53_92" data-name="Component 53 – 92" transform="translate(720 1729)"><path id="Rectangle_649-6" data-name="Rectangle 649" fill="none" stroke="#dddbfd" stroke-width="1" d="M0 0h120v120H0z"/></g><g id="Component_53_93" data-name="Component 53 – 93" transform="translate(840 1729)"><path id="Rectangle_649-7" data-name="Rectangle 649" fill="none" stroke="#dddbfd" stroke-width="1" d="M0 0h120v120H0z"/></g><g id="Component_53_94" data-name="Component 53 – 94" transform="translate(960 1729)"><path id="Rectangle_649-8" data-name="Rectangle 649" fill="none" stroke="#dddbfd" stroke-width="1" d="M0 0h120v120H0z"/></g><g id="Component_53_95" data-name="Component 53 – 95" transform="translate(1080 1729)"><path id="Rectangle_649-9" data-name="Rectangle 649" fill="none" stroke="#dddbfd" stroke-width="1" d="M0 0h120v120H0z"/></g><g id="Component_53_96" data-name="Component 53 – 96" transform="translate(1200 1729)"><path id="Rectangle_649-10" data-name="Rectangle 649" fill="none" stroke="#dddbfd" stroke-width="1" d="M0 0h120v120H0z"/></g><g id="Component_53_97" data-name="Component 53 – 97" transform="translate(1320 1729)"><path id="Rectangle_649-11" data-name="Rectangle 649" fill="none" stroke="#dddbfd" stroke-width="1" d="M0 0h120v120H0z"/></g><g id="Component_53_98" data-name="Component 53 – 98" transform="translate(1440 1729)"><path id="Rectangle_649-12" data-name="Rectangle 649" fill="none" stroke="#dddbfd" stroke-width="1" d="M0 0h120v120H0z"/></g><g id="Component_53_99" data-name="Component 53 – 99" transform="translate(1560 1729)"><path id="Rectangle_649-13" data-name="Rectangle 649" fill="none" stroke="#dddbfd" stroke-width="1" d="M0 0h120v120H0z"/></g><g id="Component_53_100" data-name="Component 53 – 100" transform="translate(1680 1729)"><path id="Rectangle_649-14" data-name="Rectangle 649" fill="none" stroke="#dddbfd" stroke-width="1" d="M0 0h120v120H0z"/></g></g><g id="Group_157" data-name="Group 157" transform="translate(0 600)"><g id="Component_53_73" data-name="Component 53 – 73" transform="translate(120 1729)"><path id="Rectangle_649-15" data-name="Rectangle 649" fill="none" stroke="#dddbfd" stroke-width="1" d="M0 0h120v120H0z"/></g><g id="Component_53_74" data-name="Component 53 – 74" transform="translate(240 1729)"><path id="Rectangle_649-16" data-name="Rectangle 649" fill="none" stroke="#dddbfd" stroke-width="1" d="M0 0h120v120H0z"/></g><g id="Component_53_75" data-name="Component 53 – 75" transform="translate(360 1729)"><path id="Rectangle_649-17" data-name="Rectangle 649" fill="none" stroke="#dddbfd" stroke-width="1" d="M0 0h120v120H0z"/></g><g id="Component_53_76" data-name="Component 53 – 76" transform="translate(480 1729)"><path id="Rectangle_649-18" data-name="Rectangle 649" fill="none" stroke="#dddbfd" stroke-width="1" d="M0 0h120v120H0z"/></g><g id="Component_53_77" data-name="Component 53 – 77" transform="translate(600 1729)"><path id="Rectangle_649-19" data-name="Rectangle 649" fill="none" stroke="#dddbfd" stroke-width="1" d="M0 0h120v120H0z"/></g><g id="Component_53_78" data-name="Component 53 – 78" transform="translate(720 1729)"><path id="Rectangle_649-20" data-name="Rectangle 649" fill="none" stroke="#dddbfd" stroke-width="1" d="M0 0h120v120H0z"/></g><g id="Component_53_79" data-name="Component 53 – 79" transform="translate(840 1729)"><path id="Rectangle_649-21" data-name="Rectangle 649" fill="none" stroke="#dddbfd" stroke-width="1" d="M0 0h120v120H0z"/></g><g id="Component_53_80" data-name="Component 53 – 80" transform="translate(960 1729)"><path id="Rectangle_649-22" data-name="Rectangle 649" fill="none" stroke="#dddbfd" stroke-width="1" d="M0 0h120v120H0z"/></g><g id="Component_53_81" data-name="Component 53 – 81" transform="translate(1080 1729)"><path id="Rectangle_649-23" data-name="Rectangle 649" fill="none" stroke="#dddbfd" stroke-width="1" d="M0 0h120v120H0z"/></g><g id="Component_53_82" data-name="Component 53 – 82" transform="translate(1200 1729)"><path id="Rectangle_649-24" data-name="Rectangle 649" fill="none" stroke="#dddbfd" stroke-width="1" d="M0 0h120v120H0z"/></g><g id="Component_53_83" data-name="Component 53 – 83" transform="translate(1320 1729)"><path id="Rectangle_649-25" data-name="Rectangle 649" fill="none" stroke="#dddbfd" stroke-width="1" d="M0 0h120v120H0z"/></g><g id="Component_53_84" data-name="Component 53 – 84" transform="translate(1440 1729)"><path id="Rectangle_649-26" data-name="Rectangle 649" fill="none" stroke="#dddbfd" stroke-width="1" d="M0 0h120v120H0z"/></g><g id="Component_53_85" data-name="Component 53 – 85" transform="translate(1560 1729)"><path id="Rectangle_649-27" data-name="Rectangle 649" fill="none" stroke="#dddbfd" stroke-width="1" d="M0 0h120v120H0z"/></g><g id="Component_53_86" data-name="Component 53 – 86" transform="translate(1680 1729)"><path id="Rectangle_649-28" data-name="Rectangle 649" fill="none" stroke="#dddbfd" stroke-width="1" d="M0 0h120v120H0z"/></g></g><g id="Group_156" data-name="Group 156" transform="translate(0 480)"><g id="Component_53_59" data-name="Component 53 – 59" transform="translate(120 1729)"><path id="Rectangle_649-29" data-name="Rectangle 649" fill="none" stroke="#dddbfd" stroke-width="1" d="M0 0h120v120H0z"/></g><g id="Component_53_60" data-name="Component 53 – 60" transform="translate(240 1729)"><path id="Rectangle_649-30" data-name="Rectangle 649" fill="none" stroke="#dddbfd" stroke-width="1" d="M0 0h120v120H0z"/></g><g id="Component_53_61" data-name="Component 53 – 61" transform="translate(360 1729)"><path id="Rectangle_649-31" data-name="Rectangle 649" fill="none" stroke="#dddbfd" stroke-width="1" d="M0 0h120v120H0z"/></g><g id="Component_53_62" data-name="Component 53 – 62" transform="translate(480 1729)"><path id="Rectangle_649-32" data-name="Rectangle 649" fill="none" stroke="#dddbfd" stroke-width="1" d="M0 0h120v120H0z"/></g><g id="Component_53_63" data-name="Component 53 – 63" transform="translate(600 1729)"><path id="Rectangle_649-33" data-name="Rectangle 649" fill="none" stroke="#dddbfd" stroke-width="1" d="M0 0h120v120H0z"/></g><g id="Component_53_64" data-name="Component 53 – 64" transform="translate(720 1729)"><path id="Rectangle_649-34" data-name="Rectangle 649" fill="none" stroke="#dddbfd" stroke-width="1" d="M0 0h120v120H0z"/></g><g id="Component_53_65" data-name="Component 53 – 65" transform="translate(840 1729)"><path id="Rectangle_649-35" data-name="Rectangle 649" fill="none" stroke="#dddbfd" stroke-width="1" d="M0 0h120v120H0z"/></g><g id="Component_53_66" data-name="Component 53 – 66" transform="translate(960 1729)"><path id="Rectangle_649-36" data-name="Rectangle 649" fill="none" stroke="#dddbfd" stroke-width="1" d="M0 0h120v120H0z"/></g><g id="Component_53_67" data-name="Component 53 – 67" transform="translate(1080 1729)"><path id="Rectangle_649-37" data-name="Rectangle 649" fill="none" stroke="#dddbfd" stroke-width="1" d="M0 0h120v120H0z"/></g><g id="Component_53_68" data-name="Component 53 – 68" transform="translate(1200 1729)"><path id="Rectangle_649-38" data-name="Rectangle 649" fill="none" stroke="#dddbfd" stroke-width="1" d="M0 0h120v120H0z"/></g><g id="Component_53_69" data-name="Component 53 – 69" transform="translate(1320 1729)"><path id="Rectangle_649-39" data-name="Rectangle 649" fill="none" stroke="#dddbfd" stroke-width="1" d="M0 0h120v120H0z"/></g><g id="Component_53_70" data-name="Component 53 – 70" transform="translate(1440 1729)"><path id="Rectangle_649-40" data-name="Rectangle 649" fill="none" stroke="#dddbfd" stroke-width="1" d="M0 0h120v120H0z"/></g><g id="Component_53_71" data-name="Component 53 – 71" transform="translate(1560 1729)"><path id="Rectangle_649-41" data-name="Rectangle 649" fill="none" stroke="#dddbfd" stroke-width="1" d="M0 0h120v120H0z"/></g><g id="Component_53_72" data-name="Component 53 – 72" transform="translate(1680 1729)"><path id="Rectangle_649-42" data-name="Rectangle 649" fill="none" stroke="#dddbfd" stroke-width="1" d="M0 0h120v120H0z"/></g></g><g id="Group_155" data-name="Group 155" transform="translate(0 360)"><g id="Component_53_45" data-name="Component 53 – 45" transform="translate(120 1729)"><path id="Rectangle_649-43" data-name="Rectangle 649" fill="none" stroke="#dddbfd" stroke-width="1" d="M0 0h120v120H0z"/></g><g id="Component_53_46" data-name="Component 53 – 46" transform="translate(240 1729)"><path id="Rectangle_649-44" data-name="Rectangle 649" fill="none" stroke="#dddbfd" stroke-width="1" d="M0 0h120v120H0z"/></g><g id="Component_53_47" data-name="Component 53 – 47" transform="translate(360 1729)"><path id="Rectangle_649-45" data-name="Rectangle 649" fill="none" stroke="#dddbfd" stroke-width="1" d="M0 0h120v120H0z"/></g><g id="Component_53_48" data-name="Component 53 – 48" transform="translate(480 1729)"><path id="Rectangle_649-46" data-name="Rectangle 649" fill="none" stroke="#dddbfd" stroke-width="1" d="M0 0h120v120H0z"/></g><g id="Component_53_49" data-name="Component 53 – 49" transform="translate(600 1729)"><path id="Rectangle_649-47" data-name="Rectangle 649" fill="none" stroke="#dddbfd" stroke-width="1" d="M0 0h120v120H0z"/></g><g id="Component_53_50" data-name="Component 53 – 50" transform="translate(720 1729)"><path id="Rectangle_649-48" data-name="Rectangle 649" fill="none" stroke="#dddbfd" stroke-width="1" d="M0 0h120v120H0z"/></g><g id="Component_53_51" data-name="Component 53 – 51" transform="translate(840 1729)"><path id="Rectangle_649-49" data-name="Rectangle 649" fill="none" stroke="#dddbfd" stroke-width="1" d="M0 0h120v120H0z"/></g><g id="Component_53_52" data-name="Component 53 – 52" transform="translate(960 1729)"><path id="Rectangle_649-50" data-name="Rectangle 649" fill="none" stroke="#dddbfd" stroke-width="1" d="M0 0h120v120H0z"/></g><g id="Component_53_53" data-name="Component 53 – 53" transform="translate(1080 1729)"><path id="Rectangle_649-51" data-name="Rectangle 649" fill="none" stroke="#dddbfd" stroke-width="1" d="M0 0h120v120H0z"/></g><g id="Component_53_54" data-name="Component 53 – 54" transform="translate(1200 1729)"><path id="Rectangle_649-52" data-name="Rectangle 649" fill="none" stroke="#dddbfd" stroke-width="1" d="M0 0h120v120H0z"/></g><g id="Component_53_55" data-name="Component 53 – 55" transform="translate(1320 1729)"><path id="Rectangle_649-53" data-name="Rectangle 649" fill="none" stroke="#dddbfd" stroke-width="1" d="M0 0h120v120H0z"/></g><g id="Component_53_56" data-name="Component 53 – 56" transform="translate(1440 1729)"><path id="Rectangle_649-54" data-name="Rectangle 649" fill="none" stroke="#dddbfd" stroke-width="1" d="M0 0h120v120H0z"/></g><g id="Component_53_57" data-name="Component 53 – 57" transform="translate(1560 1729)"><path id="Rectangle_649-55" data-name="Rectangle 649" fill="none" stroke="#dddbfd" stroke-width="1" d="M0 0h120v120H0z"/></g><g id="Component_53_58" data-name="Component 53 – 58" transform="translate(1680 1729)"><path id="Rectangle_649-56" data-name="Rectangle 649" fill="none" stroke="#dddbfd" stroke-width="1" d="M0 0h120v120H0z"/></g></g><g id="Group_154" data-name="Group 154" transform="translate(0 240)"><g id="Component_53_31" data-name="Component 53 – 31" transform="translate(120 1729)"><path id="Rectangle_649-57" data-name="Rectangle 649" fill="none" stroke="#dddbfd" stroke-width="1" d="M0 0h120v120H0z"/></g><g id="Component_53_32" data-name="Component 53 – 32" transform="translate(240 1729)"><path id="Rectangle_649-58" data-name="Rectangle 649" fill="none" stroke="#dddbfd" stroke-width="1" d="M0 0h120v120H0z"/></g><g id="Component_53_33" data-name="Component 53 – 33" transform="translate(360 1729)"><path id="Rectangle_649-59" data-name="Rectangle 649" fill="none" stroke="#dddbfd" stroke-width="1" d="M0 0h120v120H0z"/></g><g id="Component_53_34" data-name="Component 53 – 34" transform="translate(480 1729)"><path id="Rectangle_649-60" data-name="Rectangle 649" fill="none" stroke="#dddbfd" stroke-width="1" d="M0 0h120v120H0z"/></g><g id="Component_53_35" data-name="Component 53 – 35" transform="translate(600 1729)"><path id="Rectangle_649-61" data-name="Rectangle 649" fill="none" stroke="#dddbfd" stroke-width="1" d="M0 0h120v120H0z"/></g><g id="Component_53_36" data-name="Component 53 – 36" transform="translate(720 1729)"><path id="Rectangle_649-62" data-name="Rectangle 649" fill="none" stroke="#dddbfd" stroke-width="1" d="M0 0h120v120H0z"/></g><g id="Component_53_37" data-name="Component 53 – 37" transform="translate(840 1729)"><path id="Rectangle_649-63" data-name="Rectangle 649" fill="none" stroke="#dddbfd" stroke-width="1" d="M0 0h120v120H0z"/></g><g id="Component_53_38" data-name="Component 53 – 38" transform="translate(960 1729)"><path id="Rectangle_649-64" data-name="Rectangle 649" fill="none" stroke="#dddbfd" stroke-width="1" d="M0 0h120v120H0z"/></g><g id="Component_53_39" data-name="Component 53 – 39" transform="translate(1080 1729)"><path id="Rectangle_649-65" data-name="Rectangle 649" fill="none" stroke="#dddbfd" stroke-width="1" d="M0 0h120v120H0z"/></g><g id="Component_53_40" data-name="Component 53 – 40" transform="translate(1200 1729)"><path id="Rectangle_649-66" data-name="Rectangle 649" fill="none" stroke="#dddbfd" stroke-width="1" d="M0 0h120v120H0z"/></g><g id="Component_53_41" data-name="Component 53 – 41" transform="translate(1320 1729)"><path id="Rectangle_649-67" data-name="Rectangle 649" fill="none" stroke="#dddbfd" stroke-width="1" d="M0 0h120v120H0z"/></g><g id="Component_53_42" data-name="Component 53 – 42" transform="translate(1440 1729)"><path id="Rectangle_649-68" data-name="Rectangle 649" fill="none" stroke="#dddbfd" stroke-width="1" d="M0 0h120v120H0z"/></g><g id="Component_53_43" data-name="Component 53 – 43" transform="translate(1560 1729)"><path id="Rectangle_649-69" data-name="Rectangle 649" fill="none" stroke="#dddbfd" stroke-width="1" d="M0 0h120v120H0z"/></g><g id="Component_53_44" data-name="Component 53 – 44" transform="translate(1680 1729)"><path id="Rectangle_649-70" data-name="Rectangle 649" fill="none" stroke="#dddbfd" stroke-width="1" d="M0 0h120v120H0z"/></g></g><g id="Group_153" data-name="Group 153" transform="translate(0 120)"><g id="Component_53_17" data-name="Component 53 – 17" transform="translate(120 1729)"><path id="Rectangle_649-71" data-name="Rectangle 649" fill="none" stroke="#dddbfd" stroke-width="1" d="M0 0h120v120H0z"/></g><g id="Component_53_18" data-name="Component 53 – 18" transform="translate(240 1729)"><path id="Rectangle_649-72" data-name="Rectangle 649" fill="none" stroke="#dddbfd" stroke-width="1" d="M0 0h120v120H0z"/></g><g id="Component_53_19" data-name="Component 53 – 19" transform="translate(360 1729)"><path id="Rectangle_649-73" data-name="Rectangle 649" fill="none" stroke="#dddbfd" stroke-width="1" d="M0 0h120v120H0z"/></g><g id="Component_53_20" data-name="Component 53 – 20" transform="translate(480 1729)"><path id="Rectangle_649-74" data-name="Rectangle 649" fill="none" stroke="#dddbfd" stroke-width="1" d="M0 0h120v120H0z"/></g><g id="Component_53_21" data-name="Component 53 – 21" transform="translate(600 1729)"><path id="Rectangle_649-75" data-name="Rectangle 649" fill="none" stroke="#dddbfd" stroke-width="1" d="M0 0h120v120H0z"/></g><g id="Component_53_22" data-name="Component 53 – 22" transform="translate(720 1729)"><path id="Rectangle_649-76" data-name="Rectangle 649" fill="none" stroke="#dddbfd" stroke-width="1" d="M0 0h120v120H0z"/></g><g id="Component_53_23" data-name="Component 53 – 23" transform="translate(840 1729)"><path id="Rectangle_649-77" data-name="Rectangle 649" fill="none" stroke="#dddbfd" stroke-width="1" d="M0 0h120v120H0z"/></g><g id="Component_53_24" data-name="Component 53 – 24" transform="translate(960 1729)"><path id="Rectangle_649-78" data-name="Rectangle 649" fill="none" stroke="#dddbfd" stroke-width="1" d="M0 0h120v120H0z"/></g><g id="Component_53_25" data-name="Component 53 – 25" transform="translate(1080 1729)"><path id="Rectangle_649-79" data-name="Rectangle 649" fill="none" stroke="#dddbfd" stroke-width="1" d="M0 0h120v120H0z"/></g><g id="Component_53_26" data-name="Component 53 – 26" transform="translate(1200 1729)"><path id="Rectangle_649-80" data-name="Rectangle 649" fill="none" stroke="#dddbfd" stroke-width="1" d="M0 0h120v120H0z"/></g><g id="Component_53_27" data-name="Component 53 – 27" transform="translate(1320 1729)"><path id="Rectangle_649-81" data-name="Rectangle 649" fill="none" stroke="#dddbfd" stroke-width="1" d="M0 0h120v120H0z"/></g><g id="Component_53_28" data-name="Component 53 – 28" transform="translate(1440 1729)"><path id="Rectangle_649-82" data-name="Rectangle 649" fill="none" stroke="#dddbfd" stroke-width="1" d="M0 0h120v120H0z"/></g><g id="Component_53_29" data-name="Component 53 – 29" transform="translate(1560 1729)"><path id="Rectangle_649-83" data-name="Rectangle 649" fill="none" stroke="#dddbfd" stroke-width="1" d="M0 0h120v120H0z"/></g><g id="Component_53_30" data-name="Component 53 – 30" transform="translate(1680 1729)"><path id="Rectangle_649-84" data-name="Rectangle 649" fill="none" stroke="#dddbfd" stroke-width="1" d="M0 0h120v120H0z"/></g></g><g id="Group_151" data-name="Group 151"><g id="Component_53_3" data-name="Component 53 – 3" transform="translate(120 1729)"><path id="Rectangle_649-85" data-name="Rectangle 649" fill="none" stroke="#dddbfd" stroke-width="1" d="M0 0h120v120H0z"/></g><g id="Component_53_4" data-name="Component 53 – 4" transform="translate(240 1729)"><path id="Rectangle_649-86" data-name="Rectangle 649" fill="none" stroke="#dddbfd" stroke-width="1" d="M0 0h120v120H0z"/></g><g id="Component_53_5" data-name="Component 53 – 5" transform="translate(360 1729)"><path id="Rectangle_649-87" data-name="Rectangle 649" fill="none" stroke="#dddbfd" stroke-width="1" d="M0 0h120v120H0z"/></g><g id="Component_53_6" data-name="Component 53 – 6" transform="translate(480 1729)"><path id="Rectangle_649-88" data-name="Rectangle 649" fill="none" stroke="#dddbfd" stroke-width="1" d="M0 0h120v120H0z"/></g><g id="Component_53_7" data-name="Component 53 – 7" transform="translate(600 1729)"><path id="Rectangle_649-89" data-name="Rectangle 649" fill="none" stroke="#dddbfd" stroke-width="1" d="M0 0h120v120H0z"/></g><g id="Component_53_8" data-name="Component 53 – 8" transform="translate(720 1729)"><path id="Rectangle_649-90" data-name="Rectangle 649" fill="none" stroke="#dddbfd" stroke-width="1" d="M0 0h120v120H0z"/></g><g id="Component_53_9" data-name="Component 53 – 9" transform="translate(840 1729)"><path id="Rectangle_649-91" data-name="Rectangle 649" fill="none" stroke="#dddbfd" stroke-width="1" d="M0 0h120v120H0z"/></g><g id="Component_53_10" data-name="Component 53 – 10" transform="translate(960 1729)"><path id="Rectangle_649-92" data-name="Rectangle 649" fill="none" stroke="#dddbfd" stroke-width="1" d="M0 0h120v120H0z"/></g><g id="Component_53_11" data-name="Component 53 – 11" transform="translate(1080 1729)"><path id="Rectangle_649-93" data-name="Rectangle 649" fill="none" stroke="#dddbfd" stroke-width="1" d="M0 0h120v120H0z"/></g><g id="Component_53_12" data-name="Component 53 – 12" transform="translate(1200 1729)"><path id="Rectangle_649-94" data-name="Rectangle 649" fill="none" stroke="#dddbfd" stroke-width="1" d="M0 0h120v120H0z"/></g><g id="Component_53_13" data-name="Component 53 – 13" transform="translate(1320 1729)"><path id="Rectangle_649-95" data-name="Rectangle 649" fill="none" stroke="#dddbfd" stroke-width="1" d="M0 0h120v120H0z"/></g><g id="Component_53_14" data-name="Component 53 – 14" transform="translate(1440 1729)"><path id="Rectangle_649-96" data-name="Rectangle 649" fill="none" stroke="#dddbfd" stroke-width="1" d="M0 0h120v120H0z"/></g><g id="Component_53_15" data-name="Component 53 – 15" transform="translate(1560 1729)"><path id="Rectangle_649-97" data-name="Rectangle 649" fill="none" stroke="#dddbfd" stroke-width="1" d="M0 0h120v120H0z"/></g><g id="Component_53_16" data-name="Component 53 – 16" transform="translate(1680 1729)"><path id="Rectangle_649-98" data-name="Rectangle 649" fill="none" stroke="#dddbfd" stroke-width="1" d="M0 0h120v120H0z"/></g></g></g></g><rect id="yellow-circle" width="239" height="239" rx="119.5" transform="translate(1440 360)" fill="#fc0"/><path id="green-quarter-circle" d="M240 0v240H0A240 240 0 0 1 240 0Z" transform="rotate(180 120 540)" fill="#00d48f"/><g id="yellow-arrow" transform="rotate(-90 102 378)" style="isolation:isolate" fill="#1e1796"><path id="Rectangle_487" data-name="Rectangle 487" transform="translate(0 456)" d="M0 0h60v60H0z"/><path id="Rectangle_488" data-name="Rectangle 488" transform="translate(60 456)" d="M0 0h60v60H0z"/><path id="Rectangle_489" data-name="Rectangle 489" transform="translate(60 396)" d="M0 0h60v60H0z"/></g><path id="yellow-square" transform="translate(1560 840)" fill="#1e1796" d="M0 0h120v120H0z"/></g></svg>