<svg width="14" height="17" viewBox="0 0 14 17" fill="none" xmlns="http://www.w3.org/2000/svg">
  <path d="m6.908 16.881-.225-.114C6.423 16.636.32 13.481.32 7.089A6.596 6.596 0 0 1 6.908.5a6.596 6.596 0 0 1 6.588 6.589c0 6.392-6.103 9.547-6.363 9.678l-.225.114Zm0-15.381A5.594 5.594 0 0 0 1.32 7.089c0 5.11 4.516 8.037 5.588 8.66 1.072-.623 5.588-3.55 5.588-8.66A5.594 5.594 0 0 0 6.908 1.5Z" fill="#000"/>
  <path d="M6.908 10.018a3.124 3.124 0 0 1-3.121-3.12c0-1.721 1.4-3.12 3.121-3.12 1.72 0 3.12 1.399 3.12 3.12 0 1.72-1.4 3.12-3.12 3.12Zm0-5.24a2.123 2.123 0 0 0-2.121 2.12c0 1.169.952 2.12 2.121 2.12s2.12-.951 2.12-2.12c0-1.17-.951-2.12-2.12-2.12Z" fill="#000"/>
</svg>
