<svg xmlns="http://www.w3.org/2000/svg" width="104" height="130" viewBox="0 0 104 130"><g id="Group_195" data-name="Group 195" transform="translate(-840 -1380)"><g id="Group_57" data-name="Group 57" transform="translate(892.406 1406.203)" fill="#00d48f"><path id="Rectangle_220" data-name="Rectangle 220" transform="rotate(-180 25.797 26.398)" d="M0 0h25v27H0z"/><path id="Rectangle_221" data-name="Rectangle 221" transform="rotate(-180 25.797 12.898)" d="M0 0h25v26H0z"/><path id="Rectangle_222" data-name="Rectangle 222" transform="rotate(-180 13.297 12.899)" d="M0 0h27v26H0z"/></g><g id="Group_58" data-name="Group 58" transform="translate(840 1380)" fill="#ffd500"><path id="Rectangle_223" data-name="Rectangle 223" transform="rotate(90 13 13)" d="M0 0h26v26H0z"/><path id="Rectangle_224" data-name="Rectangle 224" transform="rotate(90 13 39)" d="M0 0h26v26H0z"/><path id="Rectangle_225" data-name="Rectangle 225" transform="rotate(90 26 26)" d="M0 0h26v26H0z"/></g><g id="Group_59" data-name="Group 59" transform="translate(840 1432.406)" fill="#0f0787"><path id="Rectangle_226" data-name="Rectangle 226" transform="rotate(-180 39.5 13.297)" d="M0 0h27v27H0z"/><path id="Rectangle_227" data-name="Rectangle 227" transform="rotate(90 13.203 12.797)" d="M0 0h27v26H0z"/><path id="Rectangle_228" data-name="Rectangle 228" d="M0 0h52A51 51 0 0 1 1 51H0V0Z" transform="translate(52 26.594)"/><path id="Rectangle_229" data-name="Rectangle 229" d="M0 0h52v51h-1A51 51 0 0 1 0 0Z" transform="translate(0 26.594)"/></g></g></svg>
