<svg xmlns="http://www.w3.org/2000/svg" width="480" height="480" viewBox="0 0 480 480"><g id="Group_318" data-name="Group 318" transform="translate(-240 -1857)"><g id="Group_231" data-name="Group 231" transform="translate(360 2097)" fill="#1e1796"><path id="Rectangle_678" data-name="Rectangle 678" transform="translate(0 120)" d="M0 0h120v120H0z"/><path id="Rectangle_679" data-name="Rectangle 679" transform="rotate(-90 180 60)" d="M0 0h120v120H0z"/><circle id="Ellipse_8" data-name="Ellipse 8" cx="60" cy="60" r="60" transform="translate(60)"/></g><g id="Group_233" data-name="Group 233" transform="translate(240 1857)" fill="#d4e2ff"><path id="Rectangle_678-2" data-name="Rectangle 678" d="M0 0h120v120A120 120 0 0 1 0 0Z" transform="rotate(180 60 120)"/><path id="Rectangle_679-2" data-name="Rectangle 679" d="M0 0h120v120A120 120 0 0 1 0 0Z" transform="rotate(90 60 180)"/><circle id="Ellipse_8-2" data-name="Ellipse 8" cx="60" cy="60" r="60" transform="translate(60)"/></g><g id="Group_242" data-name="Group 242" transform="translate(480 1857)" fill="#d4e2ff"><path id="Rectangle_678-3" data-name="Rectangle 678" d="M0 0h120v120A120 120 0 0 1 0 0Z" transform="rotate(90 0 120)"/><path id="Rectangle_679-3" data-name="Rectangle 679" d="M0 0h120v120A120 120 0 0 1 0 0Z" transform="rotate(180 120 120)"/><circle id="Ellipse_8-3" data-name="Ellipse 8" cx="60" cy="60" r="60" transform="translate(60)"/></g></g></svg>
