<svg xmlns="http://www.w3.org/2000/svg" width="203.474" height="77.989" viewBox="0 0 203.474 77.989"><g fill="#00d48f"><path d="M62.268 46.793H46.701V31.195h15.567z"/><path d="M62.268 31.196H46.701V15.598h15.567zM46.701 31.196H31.134V15.598h15.567z"/></g><g fill="#fc0"><path d="M15.567 0v15.598H0V0zM31.134 15.598v15.598H15.567V15.598zM31.134 0v15.598H15.567V0z"/></g><g fill="#1e1796"><path d="M46.701 46.793H31.134V31.195h15.567zM15.567 31.195v15.598H0V31.195z"/><path d="M31.134 46.793h31.134v.061a31.134 31.134 0 01-31.134 31.139v-31.2zM0 46.793h31.134v31.2A31.134 31.134 0 010 46.854v-.061z"/></g><path fill="#0f0787" d="M116.573 54.035l-1.643-2.415-3.31 2.262-3.31-2.262-1.643 2.415 4.952 3.384z"/><path fill="#1e1796" d="M149.091 27.638l-1.643-2.415-3.31 2.262-3.31-2.262-1.643 2.415 4.953 3.384z"/><path fill="#00d48f" d="M168.225 70.581h4.629v4.638h-4.629z"/><path fill="#1e1796" d="M160.606 61.803h-.191a6.884 6.884 0 00-2.209-2.123 5.937 5.937 0 00-3.013-.744 6.942 6.942 0 00-6.457 4.016 9.836 9.836 0 00-.937 4.37 9.953 9.953 0 00.922 4.385 7.027 7.027 0 002.6 2.95 7.182 7.182 0 003.868 1.05 6.011 6.011 0 003.028-.729 6.759 6.759 0 002.194-2.108h.166v2.348h4.685v-15.8h-4.661zm-1.2 8.644a3.985 3.985 0 01-5.771 0 4.439 4.439 0 01-1.148-3.125 4.382 4.382 0 011.148-3.109 3.822 3.822 0 012.9-1.222 3.772 3.772 0 012.885 1.221 4.832 4.832 0 01-.015 6.234zM98.17 59.964a5.864 5.864 0 00-3.074-.816 5.517 5.517 0 00-2.938.786 5.575 5.575 0 00-1.989 2.125h-.191a4.907 4.907 0 00-1.933-2.125 5.445 5.445 0 00-2.877-.817 4.878 4.878 0 00-2.682.772 5.37 5.37 0 00-1.852 2.018h-.158v-2.305h-4.631v15.71h4.661v-8.947a3.459 3.459 0 01.765-2.336 2.58 2.58 0 012.05-.878 2.448 2.448 0 011.959.862 3.542 3.542 0 01.735 2.353v8.947h4.691v-8.947a3.348 3.348 0 01.809-2.32 2.663 2.663 0 012.065-.895 2.677 2.677 0 012.023.925 3.344 3.344 0 01.795 2.29v8.947h4.661v-9.705a7.182 7.182 0 00-.767-3.347 5.7 5.7 0 00-2.122-2.297zM115.857 60.069a9.056 9.056 0 00-4.387-1.043 9.507 9.507 0 00-4.461 1.027 7.585 7.585 0 00-3.062 2.9 8.331 8.331 0 00-1.1 4.292 8.791 8.791 0 001.1 4.413 7.646 7.646 0 003.078 2.992 9.362 9.362 0 004.477 1.057 9.823 9.823 0 004.949-1.21 7.354 7.354 0 002.941-3.622l.043-.121h-4.544l-.028.032a3.9 3.9 0 01-.986.84 4.233 4.233 0 01-2.194.564 3.936 3.936 0 01-2.68-.948 4.2 4.2 0 01-1.329-2.48h12.137l.013-.075a9.77 9.77 0 00.061-1.38 8.678 8.678 0 00-1.056-4.321 7.446 7.446 0 00-2.972-2.917zm-6.975 3.376a3.536 3.536 0 012.467-.9 3.673 3.673 0 012.542.932 3.858 3.858 0 011.227 2.314h-7.479a4.137 4.137 0 011.243-2.344zM143.373 55.579h-4.226v4.076h-2.325v3.794h2.18v7.455a4.056 4.056 0 004.4 4.408h3.348v-4.007h-2.24a1.17 1.17 0 01-1.168-1.17V63.45h3.221v-3.794h-3.22zM98.546 29.467H94.32v4.076h-2.322v3.794h2.18v7.455a4.056 4.056 0 004.4 4.408h3.348v-4.007h-2.239a1.17 1.17 0 01-1.169-1.171v-6.686h3.221v-3.794h-3.221zM198.814 33.318v2.379h-.191a6.877 6.877 0 00-2.21-2.123 5.933 5.933 0 00-3.012-.744 6.939 6.939 0 00-6.458 4.016 9.843 9.843 0 00-.938 4.37 9.953 9.953 0 00.922 4.385 7.039 7.039 0 002.605 2.95 7.182 7.182 0 003.868 1.05 6.016 6.016 0 003.028-.729 6.761 6.761 0 002.194-2.108h.166v2.348h4.685V33.318zm-.055 7.9a4.441 4.441 0 01-1.147 3.125 3.985 3.985 0 01-5.772 0 4.437 4.437 0 01-1.148-3.125 4.385 4.385 0 011.147-3.109 3.822 3.822 0 012.9-1.222 3.774 3.774 0 012.886 1.221 4.417 4.417 0 011.134 3.11zM78.245 48.659a9.706 9.706 0 004.552 1.027 9.738 9.738 0 004.536-1.026 7.439 7.439 0 003.064-2.917 8.7 8.7 0 001.086-4.4 8.7 8.7 0 00-1.086-4.4 7.451 7.451 0 00-3.064-2.917A9.741 9.741 0 0082.797 33a9.706 9.706 0 00-4.552 1.027 7.46 7.46 0 00-3.049 2.916 8.7 8.7 0 00-1.087 4.4 8.694 8.694 0 001.087 4.4 7.451 7.451 0 003.049 2.916zm.526-7.313a4.384 4.384 0 011.125-3.107 3.812 3.812 0 012.9-1.2 3.776 3.776 0 012.87 1.2 4.384 4.384 0 011.126 3.107 4.438 4.438 0 01-1.126 3.123 3.753 3.753 0 01-2.87 1.214 3.788 3.788 0 01-2.9-1.214 4.438 4.438 0 01-1.126-3.123zM143.269 40.631c0-2.262 1.46-3.219 3.386-3.219h2.516v-4.281c-3.6 0-5.236 1.565-5.778 3.179h-.185v-2.9h-4.6v15.711h4.661zM181.359 33.803a5.761 5.761 0 00-3.105-.848 5.292 5.292 0 00-4.559 2.639h-.164V33.41h-4.661v15.711h4.661v-8.826a3.252 3.252 0 01.928-2.363 3.052 3.052 0 012.251-.943 2.6 2.6 0 012.051.864 3.358 3.358 0 01.764 2.29v8.978h4.661v-9.614a7.527 7.527 0 00-.735-3.361 5.7 5.7 0 00-2.092-2.343zM162.955 33.968a9.055 9.055 0 00-4.387-1.043 9.5 9.5 0 00-4.461 1.027 7.585 7.585 0 00-3.063 2.9 8.335 8.335 0 00-1.1 4.292 8.788 8.788 0 001.1 4.413 7.646 7.646 0 003.078 2.992 9.359 9.359 0 004.477 1.057 9.818 9.818 0 004.949-1.21 7.362 7.362 0 002.941-3.622l.043-.121h-4.545l-.028.032a3.9 3.9 0 01-.985.84 4.24 4.24 0 01-2.195.563 3.933 3.933 0 01-2.679-.948 4.2 4.2 0 01-1.33-2.48h12.138l.013-.074a9.537 9.537 0 00.061-1.381 8.681 8.681 0 00-1.056-4.321 7.452 7.452 0 00-2.971-2.916zm-.738 5.721h-7.476a4.138 4.138 0 011.239-2.345 3.536 3.536 0 012.467-.9 3.677 3.677 0 012.543.932 3.863 3.863 0 011.228 2.313zM114.888 44.653l-.028.032a3.9 3.9 0 01-.985.84 4.24 4.24 0 01-2.195.563 3.933 3.933 0 01-2.679-.948 4.2 4.2 0 01-1.33-2.48h12.137l.013-.074a9.725 9.725 0 00.062-1.381 8.678 8.678 0 00-1.056-4.321 7.449 7.449 0 00-2.972-2.916 9.054 9.054 0 00-4.387-1.043 9.5 9.5 0 00-4.461 1.027 7.585 7.585 0 00-3.063 2.9 8.335 8.335 0 00-1.1 4.292 8.788 8.788 0 001.1 4.413 7.64 7.64 0 003.078 2.992 9.359 9.359 0 004.476 1.057 9.823 9.823 0 004.95-1.21 7.358 7.358 0 002.941-3.622l.043-.121zm-7.245-4.964a4.141 4.141 0 011.239-2.345 3.539 3.539 0 012.467-.9 3.677 3.677 0 012.543.932 3.859 3.859 0 011.227 2.314zM135.076 67.71a5.185 5.185 0 00-2.309-1.42 18.57 18.57 0 00-3.149-.625 43.505 43.505 0 01-2.311-.3 3.109 3.109 0 01-1.176-.457 1.046 1.046 0 01-.489-.94 1.45 1.45 0 01.716-1.274 3.5 3.5 0 011.949-.486 3.5 3.5 0 012.14.6 1.96 1.96 0 01.757 1.1h4.3a4.507 4.507 0 00-.891-2.348 5.793 5.793 0 00-2.582-1.865 10.234 10.234 0 00-3.725-.644 8.3 8.3 0 00-5.063 1.428 4.576 4.576 0 00-1.929 3.849 3.967 3.967 0 001.025 2.916 5.161 5.161 0 002.387 1.373 23.723 23.723 0 003.328.564 11.323 11.323 0 012.611.495 1.157 1.157 0 01.789 1.2 1.5 1.5 0 01-.731 1.321 3.555 3.555 0 01-1.993.5 3.978 3.978 0 01-2.532-.739 2.328 2.328 0 01-.811-1.213h-4.214a5.023 5.023 0 001.962 3.554 8.741 8.741 0 005.474 1.551 9.227 9.227 0 005.425-1.412 4.609 4.609 0 001.99-3.956 3.918 3.918 0 00-.948-2.772zM132.109 33.41l-3.363 11.859h-.409v3.851h3.631l4.809-15.711zM124.885 33.41l3.363 11.859h.086v3.851h-3.3l-4.809-15.711zM191.715 28.729l5.465-3.727 1.646 2.413-5.465 3.727z"/></svg>