<svg id="Group_318" data-name="Group 318" xmlns="http://www.w3.org/2000/svg" width="240" height="240" viewBox="0 0 240 240"><path id="Rectangle_639" data-name="Rectangle 639" fill="#f0f5ff" d="M0 0h240v240H0z"/><g id="Group_302" data-name="Group 302" transform="translate(88.866 81.006)"><g id="Group_57" data-name="Group 57" transform="translate(31.134 15.598)" fill="#6e88ff"><path id="Rectangle_220" data-name="Rectangle 220" transform="rotate(-180 15.567 15.597)" d="M0 0h15.567v15.598H0z"/><path id="Rectangle_221" data-name="Rectangle 221" transform="rotate(-180 15.567 7.799)" d="M0 0h15.567v15.598H0z"/><path id="Rectangle_222" data-name="Rectangle 222" transform="rotate(-180 7.784 7.799)" d="M0 0h15.567v15.598H0z"/></g><g id="Group_58" data-name="Group 58" fill="#b4c7ff"><path id="Rectangle_223" data-name="Rectangle 223" transform="rotate(90 7.784 7.784)" d="M0 0h15.598v15.567H0z"/><path id="Rectangle_224" data-name="Rectangle 224" transform="rotate(90 7.768 23.366)" d="M0 0h15.598v15.567H0z"/><path id="Rectangle_225" data-name="Rectangle 225" transform="rotate(90 15.567 15.567)" d="M0 0h15.598v15.567H0z"/></g><g id="Group_59" data-name="Group 59" transform="translate(0 31.195)" fill="#1e1796"><path id="Rectangle_226" data-name="Rectangle 226" transform="rotate(-180 23.35 7.799)" d="M0 0h15.567v15.598H0z"/><path id="Rectangle_227" data-name="Rectangle 227" transform="rotate(90 7.784 7.784)" d="M0 0h15.598v15.567H0z"/><path id="Rectangle_228" data-name="Rectangle 228" d="M0 0h31.134v.061A31.134 31.134 0 0 1 0 31.2V0Z" transform="translate(31.134 15.598)"/><path id="Rectangle_229" data-name="Rectangle 229" d="M0 0h31.134v31.2A31.134 31.134 0 0 1 0 .061V0Z" transform="translate(0 15.598)"/></g></g></svg>
