<svg xmlns="http://www.w3.org/2000/svg" class="w-10/12 h-auto" width="146" height="43.389" viewBox="0 0 146 43.389"><g style="isolation:isolate" fill="#0a0650"><path data-name="Subtraction 7" d="M42.906 43.388H22.524v-20.38h20.382v20.38zM27.052 26.137v2.246h4.085v12.282h2.919V28.383h4.109v-2.244zM20.38 43.388H0v-20.38h20.38v20.38zm-9.987-17.459h-.058a5.466 5.466 0 00-4.151 1.7 6.089 6.089 0 00-1.6 4.34v2.884a6 6 0 001.636 4.34 5.7 5.7 0 004.26 1.687 5.776 5.776 0 004.087-1.377A4.745 4.745 0 0016 35.776l-.019-.061h-2.824a3.214 3.214 0 01-.649 2.179 2.572 2.572 0 01-2.019.733h-.091a2.6 2.6 0 01-2.1-1.064 4.393 4.393 0 01-.809-2.726v-2.9a4.53 4.53 0 01.768-2.708 2.429 2.429 0 012.013-1.056h.068a2.761 2.761 0 012.145.763 3.174 3.174 0 01.685 2.192H16l.019-.061a4.76 4.76 0 00-1.477-3.767 5.936 5.936 0 00-4.149-1.371z"/><path data-name="Subtraction 6" d="M42.906 20.864H22.524V.484h20.382v20.38zM31.15 3.656v14.528h2.912V3.656zM20.38 20.864H0V.484h20.38v20.38zM10.187 3.453h-.025a5.771 5.771 0 00-4.354 1.751A6.167 6.167 0 004.137 9.62v2.614a6.145 6.145 0 001.676 4.42 5.762 5.762 0 004.333 1.739h.018a5.878 5.878 0 004.4-1.745 6.109 6.109 0 001.691-4.42V9.611a6.1 6.1 0 00-1.693-4.415 5.833 5.833 0 00-4.375-1.743zm.107 12.681h-.258a2.745 2.745 0 01-2.178-1.084 4.518 4.518 0 01-.828-2.811V9.6a4.532 4.532 0 01.817-2.793 2.731 2.731 0 012.172-1.084h.259a2.812 2.812 0 012.209 1.084 4.405 4.405 0 01.848 2.789v2.638a4.472 4.472 0 01-.839 2.811 2.8 2.8 0 01-2.201 1.089z"/><path data-name="Path 95" d="M57.562 9.741A6.558 6.558 0 0056.016 5.2a5.329 5.329 0 00-4.141-1.747 5.124 5.124 0 00-4.072 1.745 6.653 6.653 0 00-1.514 4.541v2.363a6.646 6.646 0 001.514 4.541 5.142 5.142 0 004.076 1.73 5.265 5.265 0 004.136-1.73 6.569 6.569 0 001.542-4.541V9.741zm-1.187 2.378a5.846 5.846 0 01-1.183 3.823 3.992 3.992 0 01-3.3 1.431 3.947 3.947 0 01-3.243-1.438 5.852 5.852 0 01-1.163-3.816v-2.4a5.876 5.876 0 011.157-3.8 3.933 3.933 0 013.243-1.44 4.062 4.062 0 013.308 1.44 5.7 5.7 0 011.178 3.8v2.379zm9.328.028a5.021 5.021 0 003.537-1.157 4.426 4.426 0 000-6.169 5.016 5.016 0 00-3.537-1.163h-5v14.526h1.187v-6.039zm-3.812-7.473h3.812a3.609 3.609 0 012.7.923 3.191 3.191 0 01.9 2.32 3.135 3.135 0 01-.9 2.3 3.642 3.642 0 01-2.7.912h-3.81V4.67zm19.627 5.455h-6.984V4.67h7.961V3.652h-9.149V18.18h9.2v-1.018h-8.011v-6.013h6.984zm8.82 1.488a3.481 3.481 0 012.409.774 2.69 2.69 0 01.865 2.11v1.328a5.97 5.97 0 00.149 1.347 1.992 1.992 0 00.519 1.008h1.217v-.244a1.892 1.892 0 01-.53-.878 4.282 4.282 0 01-.16-1.217v-1.364a3.81 3.81 0 00-.595-2.19 3.22 3.22 0 00-1.946-1.213 3.788 3.788 0 001.885-1.332 3.416 3.416 0 00.668-2.069 3.64 3.64 0 00-1.248-2.988A5.474 5.474 0 0090.01 3.67h-4.92v14.517h1.185v-6.569zm-4.063-6.934h3.735a4.109 4.109 0 012.729.774 2.75 2.75 0 01.9 2.21 2.7 2.7 0 01-.908 2.141 4.3 4.3 0 01-2.874.794h-3.583zm21.59 13.5h1.237l-5.477-14.526h-1.133l-5.518 14.526h1.236l1.5-4.05h6.655l1.5 4.05zm-4.839-12.974h.061l2.893 7.862h-5.87zm-.549-2.554h1.081L106.042.06l-.03-.061h-1.466l-2.065 2.653z"/><path data-name="Path 96" d="M119.789 3.653h-11.2v1.018h5v13.51h1.2V4.673h5.008zm12.684 6.087a6.558 6.558 0 00-1.546-4.541 5.339 5.339 0 00-4.15-1.746 5.124 5.124 0 00-4.072 1.745 6.653 6.653 0 00-1.514 4.541v2.363a6.646 6.646 0 001.514 4.541 5.142 5.142 0 004.076 1.73 5.265 5.265 0 004.136-1.73 6.569 6.569 0 001.542-4.541V9.741zm-1.187 2.379a5.846 5.846 0 01-1.183 3.823 4.009 4.009 0 01-3.308 1.434 3.947 3.947 0 01-3.243-1.438 5.877 5.877 0 01-1.168-3.821V9.723a5.875 5.875 0 011.157-3.8 3.934 3.934 0 013.243-1.44 4.062 4.062 0 013.308 1.44 5.724 5.724 0 011.185 3.8v2.378z"/><path data-name="Path 97" d="M140.841 11.617a3.481 3.481 0 012.409.774 2.69 2.69 0 01.865 2.11v1.328a5.969 5.969 0 00.149 1.347 1.991 1.991 0 00.519 1.008H146v-.244a1.892 1.892 0 01-.53-.878 4.28 4.28 0 01-.16-1.217v-1.364a3.81 3.81 0 00-.595-2.19 3.22 3.22 0 00-1.946-1.213 3.788 3.788 0 001.885-1.332 3.416 3.416 0 00.668-2.069 3.64 3.64 0 00-1.248-2.988 5.489 5.489 0 00-3.572-1.02h-4.928v14.517h1.187v-6.569zm-4.072-6.934h3.732a4.11 4.11 0 012.729.774 2.751 2.751 0 01.9 2.21 2.7 2.7 0 01-.908 2.141 4.355 4.355 0 01-2.874.781h-3.574V4.684z"/><path data-name="Path 98" d="M48.413 26.139h-1.2v14.526h1.2zm12.961 9.988a4.4 4.4 0 01-1.237 2.8 4.017 4.017 0 01-2.837.934 3.691 3.691 0 01-3.057-1.47 5.984 5.984 0 01-1.153-3.8v-2.372a5.953 5.953 0 011.153-3.777 3.686 3.686 0 013.057-1.488 3.948 3.948 0 012.839.958 4.5 4.5 0 011.241 2.763h1.109l.019-.061a5.059 5.059 0 00-1.546-3.46 5.229 5.229 0 00-3.676-1.228 4.872 4.872 0 00-3.911 1.76 6.792 6.792 0 00-1.488 4.541v2.37a6.787 6.787 0 001.488 4.541 4.856 4.856 0 003.911 1.751 5.209 5.209 0 003.661-1.252 5.06 5.06 0 001.557-3.438l-.019-.061z"/><path data-name="Path 99" d="M75.03 26.14H63.836v1.016h5v13.51h1.2v-13.51h5V26.14z"/></g></svg>
