<svg class="w-10/12 h-auto" xmlns="http://www.w3.org/2000/svg" width="373.155" height="101.919" viewBox="0 0 373.155 101.919" xml:space="preserve">
  <path d="M170.254 53.675h-1.868V43.574h-.035l-3.997 5.021h-.302l-3.992-5.021h-.039v10.101h-1.865v-12.97h1.749l4.3 5.322 4.319-5.322h1.73zM174.028 40.704h1.867v12.97h-1.867zM191.723 53.675h-1.6l-8.677-9.986v9.986H179.7v-12.97h1.484l8.788 10.043V40.705h1.751zM195.554 40.704h1.863v12.97h-1.863zM207.41 43.554c-1.108-1.044-2.172-1.351-3.045-1.351-1.202 0-2.056.631-2.056 1.541 0 2.492 5.61 2.455 5.61 6.583 0 2.036-1.541 3.517-3.63 3.517-1.411 0-2.55-.377-3.637-1.196V50.29c.953 1.217 2.15 1.882 3.426 1.882 1.445 0 2.109-.914 2.109-1.634 0-2.683-5.609-2.988-5.609-6.548 0-2.109 1.561-3.461 3.941-3.461.986 0 1.974.305 2.89.915v2.11zM220.649 42.376h-4.485v11.299h-1.865V42.376h-4.489v-1.671h10.839zM230.722 42.376h-5.496v3.919h5.306v1.671h-5.306V52h5.664v1.675h-7.528v-12.97h7.36zM235.729 46.369h1.197c1.998 0 2.57-1.027 2.549-2.112-.018-1.215-.741-1.96-2.549-1.96h-1.197v4.072zm1.411-5.664c2.622 0 4.263 1.383 4.263 3.628 0 1.504-.784 2.627-2.174 3.18 1.183.779 1.901 1.978 2.896 3.594.551.894.871 1.332 1.769 2.568h-2.228l-1.712-2.664c-1.712-2.663-2.493-2.966-3.441-2.966h-.782v5.63h-1.861v-12.97h3.27zM252.437 43.554c-1.101-1.044-2.167-1.351-3.043-1.351-1.199 0-2.053.631-2.053 1.541 0 2.492 5.613 2.455 5.613 6.583 0 2.036-1.542 3.517-3.638 3.517-1.404 0-2.545-.377-3.633-1.196V50.29c.956 1.217 2.153 1.882 3.429 1.882 1.444 0 2.109-.914 2.109-1.634 0-2.683-5.611-2.988-5.611-6.548 0-2.109 1.562-3.461 3.938-3.461.983 0 1.978.305 2.888.915v2.11zM265.683 42.376h-4.484v11.299h-1.867V42.376h-4.491v-1.671h10.842zM272.956 53.787h-.38l-5.61-13.083h1.863l3.898 9.109 3.881-9.109h1.847zM286.474 52.134c2.91 0 5.058-2.109 5.058-4.946 0-2.855-2.147-4.943-5.058-4.943-2.893 0-5.042 2.088-5.042 4.943 0 2.836 2.149 4.946 5.042 4.946m0-11.605c4.277 0 6.981 3.046 6.981 6.658 0 3.499-2.626 6.655-7.021 6.655-4.242 0-6.924-3.136-6.924-6.655.001-3.596 2.757-6.658 6.964-6.658M307.589 53.787h-.377l-5.61-13.083h1.862l3.9 9.109 3.882-9.109h1.845zM327.478 53.675h-1.598l-8.676-9.986v9.986h-1.748v-12.97h1.482l8.788 10.043V40.705h1.752zM331.311 40.704h1.865v12.97h-1.865zM346.737 42.376h-4.484v11.299h-1.867V42.376h-4.49v-1.671h10.841zM351.35 46.369h1.199c1.995 0 2.565-1.027 2.547-2.112-.017-1.215-.738-1.96-2.547-1.96h-1.199v4.072zm1.409-5.664c2.623 0 4.263 1.383 4.263 3.628 0 1.504-.782 2.627-2.171 3.18 1.179.779 1.9 1.978 2.893 3.594.549.894.873 1.332 1.769 2.568h-2.226l-1.714-2.664c-1.711-2.663-2.491-2.966-3.441-2.966h-.781v5.63h-1.866v-12.97h3.274zM364.728 48.179h4.037l-2.095-4.702-1.942 4.702zm8.427 5.496h-1.9l-1.732-3.825h-5.516l-1.636 3.825h-1.902l5.573-13.048h1.311l5.802 13.048zM163.673 62.913l-2.282-2.227h1.144l2.181 1.198 2.192-1.198h1.139l-2.282 2.227h-2.092zm5.572 3.519c-1.598-.931-2.968-1.351-4.47-1.351-2.971 0-5.178 2.111-5.178 4.967 0 2.908 2.131 4.923 5.253 4.923 1.467 0 3.063-.511 4.528-1.463v2.035c-1.279.663-2.663 1.141-4.698 1.141-4.87 0-7.001-3.747-7.001-6.469 0-3.954 2.989-6.846 7.115-6.846 1.332 0 2.682.324 4.45 1.063v2zM179.981 65.214h-5.496v3.921h5.307v1.67h-5.307v4.037h5.664v1.671h-7.529V63.541h7.361zM189.251 66.394c-1.104-1.046-2.17-1.354-3.043-1.354-1.198 0-2.055.63-2.055 1.545 0 2.489 5.611 2.454 5.611 6.58 0 2.037-1.541 3.521-3.635 3.521-1.406 0-2.549-.38-3.633-1.201v-2.358c.953 1.221 2.149 1.886 3.424 1.886 1.444 0 2.11-.914 2.11-1.638 0-2.682-5.607-2.985-5.607-6.544 0-2.108 1.559-3.46 3.935-3.46.993 0 1.979.306 2.893.916v2.107zM203.79 76.512h-2.566l-6.604-6.408v6.408h-1.867V63.54h1.867v5.939l5.458-5.939h2.326l-5.652 6.146zM212.661 60.688l-2.454 2.227h-1.123l1.427-2.227h2.15zm.895 4.526h-5.499v3.921h5.306v1.67h-5.306v4.037h5.667v1.671h-7.533V63.541h7.365v1.673zM227.746 69.211h1.2c1.994 0 2.568-1.032 2.548-2.114-.019-1.218-.74-1.958-2.548-1.958h-1.2v4.072zm1.409-5.671c2.623 0 4.262 1.39 4.262 3.632 0 1.504-.78 2.627-2.169 3.177 1.179.781 1.9 1.979 2.893 3.598.549.896.871 1.331 1.769 2.565h-2.225l-1.718-2.663c-1.71-2.661-2.488-2.968-3.44-2.968h-.78v5.631h-1.865V63.54h3.273zM245.653 65.214h-5.497v3.921h5.306v1.67h-5.306v4.037h5.668v1.671h-7.53V63.541h7.359zM250.527 69.227h2.11c1.393 0 2.285-.741 2.285-2.034 0-.951-.517-1.979-2.209-1.979h-2.187v4.013zm2.187-5.687c2.835 0 4.128 1.673 4.128 3.729 0 2.032-1.368 3.635-4.37 3.635h-1.944v5.608h-1.863V63.54h4.049zM270.315 71.414c0 3.177-1.901 5.271-5.762 5.271-2.737 0-5.399-1.544-5.399-5.077V63.54h1.86v7.664c0 1.469.193 2.074.78 2.665.746.742 1.675 1.102 2.796 1.102 1.431 0 2.452-.454 3.045-1.044.666-.667.817-1.617.817-2.835V63.54h1.862v7.874zM275.706 74.842h2.341c2.192 0 2.78-1.09 2.78-2.058 0-1.176-.915-2.015-2.877-2.015h-2.244v4.073zm0-5.749h1.239c1.843 0 2.739-.684 2.739-2.073 0-.969-.554-1.807-2.265-1.807h-1.714v3.88zm-1.863-5.553h3.77c2.793 0 3.994 1.673 3.994 3.312 0 1.35-.629 2.222-1.978 2.774v.039c1.937.36 3.117 1.638 3.117 3.386 0 1.6-1.195 3.461-4.452 3.461h-4.451V63.54zM287.356 74.842h5.861v1.67h-7.721V63.54h1.86zM295.807 63.54h1.865v12.973h-1.865zM312.531 76.512h-2.563l-6.604-6.408v6.408h-1.863V63.54h1.863v5.939l5.46-5.939h2.318l-5.653 6.146zM322.755 63.54h2.244l-4.815 6.125v6.847h-1.866v-6.866l-4.809-6.106h2.244l3.481 4.468z"/>
  <g fill="#00A9E2">
    <path d="M9.919 4.968a4.963 4.963 0 0 1-4.961 4.958A4.964 4.964 0 0 1 4.964 0a4.962 4.962 0 0 1 4.955 4.968M132.58 4.968a4.966 4.966 0 0 1-4.966 4.958A4.963 4.963 0 0 1 127.625 0a4.963 4.963 0 0 1 4.955 4.968M9.919 20.301A4.96 4.96 0 0 1 0 20.291a4.958 4.958 0 0 1 4.964-4.958 4.962 4.962 0 0 1 4.955 4.968M25.251 20.301a4.96 4.96 0 1 1-9.921-.01 4.96 4.96 0 1 1 9.921.01M117.245 20.301a4.957 4.957 0 0 1-4.961 4.955 4.962 4.962 0 0 1 .006-9.923 4.961 4.961 0 0 1 4.955 4.968M132.58 20.301a4.963 4.963 0 0 1-4.966 4.955 4.962 4.962 0 1 1 4.966-4.955M9.919 35.632a4.963 4.963 0 0 1-4.961 4.958A4.962 4.962 0 0 1 0 35.622a4.953 4.953 0 0 1 4.964-4.954 4.957 4.957 0 0 1 4.955 4.964M25.251 35.632a4.963 4.963 0 0 1-4.963 4.958 4.964 4.964 0 0 1-4.958-4.968 4.958 4.958 0 0 1 4.968-4.954 4.955 4.955 0 0 1 4.953 4.964M40.582 35.632a4.96 4.96 0 0 1-4.961 4.958 4.963 4.963 0 0 1-4.957-4.968 4.954 4.954 0 0 1 4.967-4.954 4.954 4.954 0 0 1 4.951 4.964M101.914 35.632a4.965 4.965 0 0 1-4.961 4.958 4.964 4.964 0 0 1-4.958-4.968 4.952 4.952 0 0 1 4.965-4.954 4.958 4.958 0 0 1 4.954 4.964M117.245 35.632a4.96 4.96 0 1 1-9.919-.01 4.954 4.954 0 0 1 4.964-4.954 4.956 4.956 0 0 1 4.955 4.964M132.58 35.632a4.966 4.966 0 0 1-4.966 4.958 4.965 4.965 0 0 1-4.957-4.968 4.957 4.957 0 0 1 4.968-4.954 4.958 4.958 0 0 1 4.955 4.964M9.919 50.964a4.961 4.961 0 0 1-4.961 4.958A4.961 4.961 0 0 1 0 50.958 4.955 4.955 0 0 1 4.964 46a4.957 4.957 0 0 1 4.955 4.964M25.251 50.964A4.961 4.961 0 1 1 20.298 46a4.955 4.955 0 0 1 4.953 4.964M40.582 50.964a4.958 4.958 0 1 1-9.918-.006A4.956 4.956 0 0 1 35.631 46a4.954 4.954 0 0 1 4.951 4.964M55.917 50.964a4.96 4.96 0 0 1-4.961 4.958 4.963 4.963 0 0 1-4.958-4.964A4.953 4.953 0 0 1 50.962 46a4.954 4.954 0 0 1 4.955 4.964M86.583 50.964a4.961 4.961 0 1 1-9.921-.007 4.961 4.961 0 0 1 9.921.007M101.914 50.964a4.963 4.963 0 0 1-4.961 4.958 4.963 4.963 0 0 1-4.958-4.964A4.954 4.954 0 0 1 96.96 46a4.958 4.958 0 0 1 4.954 4.964M117.245 50.964a4.958 4.958 0 0 1-4.961 4.958 4.963 4.963 0 0 1-4.958-4.964A4.956 4.956 0 0 1 112.29 46a4.956 4.956 0 0 1 4.955 4.964M132.58 50.964a4.964 4.964 0 0 1-4.966 4.958 4.964 4.964 0 0 1-4.957-4.964A4.96 4.96 0 0 1 127.625 46a4.958 4.958 0 0 1 4.955 4.964M9.919 66.298A4.96 4.96 0 1 1 0 66.288a4.956 4.956 0 0 1 4.964-4.957 4.958 4.958 0 0 1 4.955 4.967M25.251 66.298a4.961 4.961 0 1 1-4.953-4.967 4.957 4.957 0 0 1 4.953 4.967M40.582 66.298a4.958 4.958 0 1 1-9.918-.01 4.957 4.957 0 0 1 4.967-4.957 4.955 4.955 0 0 1 4.951 4.967M55.917 66.298a4.96 4.96 0 0 1-4.961 4.955 4.961 4.961 0 0 1-4.958-4.965 4.954 4.954 0 0 1 4.964-4.957 4.956 4.956 0 0 1 4.955 4.967M71.248 66.298a4.96 4.96 0 0 1-4.961 4.955 4.961 4.961 0 0 1-4.958-4.965 4.957 4.957 0 0 1 4.964-4.957 4.958 4.958 0 0 1 4.955 4.967M86.583 66.298a4.965 4.965 0 0 1-4.965 4.955 4.96 4.96 0 0 1-4.957-4.965 4.959 4.959 0 0 1 4.967-4.957 4.96 4.96 0 0 1 4.955 4.967M101.914 66.298a4.963 4.963 0 0 1-4.961 4.955 4.961 4.961 0 0 1-4.958-4.965 4.955 4.955 0 0 1 4.965-4.957 4.96 4.96 0 0 1 4.954 4.967M117.245 66.298a4.958 4.958 0 0 1-4.961 4.955 4.961 4.961 0 0 1-4.958-4.965 4.957 4.957 0 0 1 4.964-4.957 4.958 4.958 0 0 1 4.955 4.967M132.58 66.298a4.962 4.962 0 1 1-9.922-.014 4.962 4.962 0 0 1 9.922.014M9.919 81.63a4.961 4.961 0 0 1-4.961 4.956A4.96 4.96 0 0 1 0 81.619a4.96 4.96 0 0 1 4.964-4.958 4.963 4.963 0 0 1 4.955 4.969M25.251 81.63a4.96 4.96 0 1 1-9.921-.011 4.966 4.966 0 0 1 4.968-4.958 4.962 4.962 0 0 1 4.953 4.969M40.582 81.63a4.958 4.958 0 1 1-9.918-.011 4.96 4.96 0 1 1 9.918.011M55.917 81.63a4.96 4.96 0 1 1-9.919-.011 4.959 4.959 0 1 1 9.919.011M71.248 81.63a4.96 4.96 0 1 1-9.919-.011 4.962 4.962 0 0 1 4.964-4.958 4.963 4.963 0 0 1 4.955 4.969M86.583 81.63a4.96 4.96 0 1 1-9.922-.011 4.963 4.963 0 0 1 4.967-4.958 4.965 4.965 0 0 1 4.955 4.969M101.914 81.63a4.963 4.963 0 0 1-4.961 4.956 4.962 4.962 0 0 1-4.958-4.967 4.96 4.96 0 1 1 9.919.011M117.245 81.63a4.958 4.958 0 0 1-4.961 4.956 4.962 4.962 0 0 1 .006-9.925 4.963 4.963 0 0 1 4.955 4.969M132.58 81.63a4.964 4.964 0 0 1-4.966 4.956 4.963 4.963 0 0 1 .011-9.925 4.964 4.964 0 0 1 4.955 4.969M9.919 96.961a4.963 4.963 0 0 1-4.961 4.958A4.962 4.962 0 0 1 0 96.953a4.955 4.955 0 0 1 4.964-4.956 4.957 4.957 0 0 1 4.955 4.964M25.251 96.961a4.963 4.963 0 0 1-4.963 4.958 4.96 4.96 0 1 1 .01-9.922 4.955 4.955 0 0 1 4.953 4.964M40.582 96.961a4.96 4.96 0 0 1-4.961 4.958 4.962 4.962 0 0 1-4.957-4.966 4.955 4.955 0 0 1 4.967-4.956 4.954 4.954 0 0 1 4.951 4.964M55.917 96.961a4.963 4.963 0 0 1-4.961 4.958 4.963 4.963 0 0 1-4.958-4.966 4.953 4.953 0 0 1 4.964-4.956 4.954 4.954 0 0 1 4.955 4.964M71.248 96.961a4.963 4.963 0 0 1-4.961 4.958 4.963 4.963 0 0 1-4.958-4.966 4.956 4.956 0 0 1 4.964-4.956 4.956 4.956 0 0 1 4.955 4.964M86.583 96.961a4.967 4.967 0 0 1-4.965 4.958 4.962 4.962 0 1 1 4.965-4.958M101.914 96.961a4.965 4.965 0 0 1-4.961 4.958 4.963 4.963 0 0 1-4.958-4.966 4.954 4.954 0 0 1 4.965-4.956 4.958 4.958 0 0 1 4.954 4.964M117.245 96.961a4.96 4.96 0 1 1-9.919-.008 4.955 4.955 0 0 1 4.964-4.956 4.956 4.956 0 0 1 4.955 4.964M132.58 96.961a4.966 4.966 0 0 1-4.966 4.958 4.964 4.964 0 0 1-4.957-4.966 4.959 4.959 0 0 1 4.968-4.956 4.958 4.958 0 0 1 4.955 4.964"/>
  </g>
</svg>
