<svg xmlns="http://www.w3.org/2000/svg" width="252.68" height="48.88" viewBox="0 0 252.68 48.88"><path fill="#231f20" d="M93.677 48.585h-1.333V.176h1.333v48.409M107.234.193h3.584l2.653 8.46h.032l2.654-8.46h3.583v11.162h-2.144v-9.21h-.03l-3.008 9.21h-2.141l-3.008-9.21-.031.031v9.18h-2.144V.192M122.946.193h2.239v11.162h-2.239V.193M128.275.193h2.75l4.254 8.348h.03V.193h2.144v11.162h-2.734l-4.27-8.347h-.032v8.347h-2.142V.193M140.547.193h2.238v11.162h-2.238V.193M151.981 2.24a5.787 5.787 0 0 0-2.269-.48c-.767 0-1.759.336-1.759 1.552 0 1.935 4.894 1.12 4.894 4.861 0 2.447-1.935 3.374-4.191 3.374-1.215 0-1.757-.16-2.861-.431l.208-2.015c.766.415 1.645.687 2.525.687.848 0 1.984-.431 1.984-1.44 0-2.126-4.893-1.247-4.893-4.94 0-2.495 1.934-3.406 3.902-3.406.958 0 1.854.127 2.67.4l-.21 1.838M157.713 1.952h-3.197V.193h8.633v1.76h-3.197v9.402h-2.239V1.952M167.424 4.959h.736c1.103 0 2.368-.16 2.368-1.552 0-1.343-1.248-1.455-2.368-1.455h-.736zM165.187.193h2.414c2.399 0 5.26-.08 5.26 3.023 0 1.311-.88 2.398-2.301 2.59v.032c.607.049.959.656 1.183 1.151l1.79 4.366h-2.494l-1.344-3.486c-.32-.831-.607-1.151-1.551-1.151h-.72v4.637h-2.237V.193M178.912 6.942 174.835.193h2.622l2.639 4.686 2.687-4.686h2.365l-3.997 6.749v4.413h-2.239V6.942M112.16 28.455c2.286 0 3.134-2.031 3.134-4.046 0-1.967-.911-3.982-3.134-3.982s-3.134 2.015-3.134 3.982c0 2.015.846 4.046 3.134 4.046zm0-9.786c3.501 0 5.47 2.366 5.47 5.74 0 3.375-1.936 5.804-5.47 5.804-3.582 0-5.47-2.382-5.47-5.804s1.92-5.74 5.47-5.74M120.483 18.86h6.204v1.76h-3.966v2.75h3.774v1.759h-3.774v4.893h-2.238V18.86M136.579 23.625h.733c1.105 0 2.368-.16 2.368-1.551 0-1.343-1.248-1.455-2.368-1.455h-.733zm-2.24-4.765h2.414c2.399 0 5.263-.08 5.263 3.023 0 1.311-.881 2.398-2.304 2.59v.032c.608.048.96.656 1.184 1.151l1.79 4.366h-2.493l-1.344-3.486c-.321-.831-.608-1.151-1.552-1.151h-.718v4.637h-2.24V18.86M145.107 18.86h6.588v1.76h-4.35v2.75h3.982v1.759h-3.982v3.134h4.382v1.76h-6.62V18.86M163.519 21.019c-.866-.4-1.986-.592-2.88-.592-2.607 0-4.046 1.76-4.046 4.046 0 2.272 1.407 3.982 3.79 3.982.608 0 1.089-.065 1.472-.161v-2.91h-2.368v-1.759h4.51v6.013c-1.184.32-2.413.575-3.614.575-3.614 0-6.126-1.807-6.126-5.58 0-3.822 2.336-5.964 6.126-5.964 1.296 0 2.318.175 3.278.463l-.142 1.887M166.964 18.86h2.237v11.162h-2.237V18.86M177.328 28.455c2.287 0 3.133-2.031 3.133-4.046 0-1.967-.912-3.982-3.133-3.982-2.224 0-3.135 2.015-3.135 3.982 0 2.015.847 4.046 3.135 4.046zm0-9.786c3.501 0 5.47 2.366 5.47 5.74 0 3.375-1.937 5.804-5.47 5.804-3.583 0-5.47-2.382-5.47-5.804s1.92-5.74 5.47-5.74M185.539 18.86h2.75l4.252 8.348h.034V18.86h2.141v11.162h-2.735l-4.268-8.348h-.032v8.348h-2.142V18.86M202.432 21.099h-.033l-1.615 4.606h3.263zm-1.232-2.24h2.527l4.382 11.163h-2.478l-.962-2.559h-4.526l-.974 2.56h-2.317L201.2 18.86M210.355 18.86h2.238v9.403h4.334v1.76h-6.572V18.86M109.474 46.93h1.247c1.87 0 3.677-1.391 3.677-3.822s-1.807-3.822-3.677-3.822h-1.247zm-2.24-9.404h3.055c3.422 0 6.445 1.152 6.445 5.582s-3.023 5.58-6.445 5.58h-3.055V37.527M119.586 37.526h6.589v1.76h-4.35v2.75h3.982v1.76h-3.982v3.133h4.38v1.76h-6.619V37.526M128.147 37.526h2.399l2.863 8.764h.031l2.83-8.764h2.223l-3.758 11.163h-2.75l-3.838-11.163M140.755 37.526h6.588v1.76h-4.351v2.75h3.981v1.76h-3.981v3.133h4.383v1.76h-6.62V37.526M150.45 37.526h2.24v9.403h4.334v1.76h-6.573V37.526M164.176 47.122c2.287 0 3.133-2.031 3.133-4.047 0-1.966-.91-3.981-3.133-3.981s-3.135 2.015-3.135 3.981c0 2.016.847 4.047 3.135 4.047zm0-9.786c3.501 0 5.468 2.365 5.468 5.74 0 3.374-1.935 5.804-5.468 5.804-3.583 0-5.47-2.383-5.47-5.805 0-3.422 1.92-5.74 5.47-5.74M174.545 42.692h.783c1.12 0 2.128-.368 2.128-1.664 0-1.294-.976-1.742-2.128-1.742h-.783zm-2.238-5.166h2.829c2.432 0 4.655.705 4.655 3.375 0 2.607-1.903 3.55-4.302 3.55h-.944v4.238h-2.238V37.526M182.195 37.526h3.581l2.655 8.46h.033l2.653-8.46h3.583v11.163h-2.143v-9.211h-.033l-3.005 9.21h-2.144l-3.006-9.21-.032.032v9.179h-2.142V37.526M198.099 37.526h6.589v1.76h-4.352v2.75h3.981v1.76h-3.981v3.133h4.383v1.76h-6.62V37.526M207.683 37.526h2.749l4.256 8.349h.03v-8.35h2.143V48.69h-2.733l-4.27-8.348h-.033v8.348h-2.142V37.526M222.177 39.286h-3.198v-1.76h8.636v1.76h-3.198v9.403h-2.24v-9.403M243.213 48.528c-.814.193-1.694.352-2.541.352-3.615 0-6.125-1.807-6.125-5.58 0-3.822 2.333-5.964 6.125-5.964.735 0 1.71.143 2.525.463l-.158 1.886c-.848-.48-1.618-.591-2.416-.591-2.303 0-3.743 1.759-3.743 4.046 0 2.271 1.41 3.982 3.792 3.982.877 0 1.919-.193 2.445-.463l.096 1.87M244.945 46.866l5.246-7.58h-5.038v-1.76h7.42v1.824l-5.292 7.58h5.404v1.759h-7.74v-1.823"/><path fill="#254aa5" fill-rule="evenodd" d="M35.042 18.325c-5.32.089-10.67 1.128-16.11 2.354-2.58.581-5.044 1.108-7.422 2.25-3.885 1.863-9.033 5.348-8.9 11.718.325 15.371 33.718 12.467 41.872 10.993 5.599-1.01 13.02-2.75 18.832-5.312 4.83-2.128 9.006-4.343 11.272-6.416-2.937.588-8.63 2.95-14.646 4.117-3.984.775-8.23 1.278-11.658 1.197-7.74-.18-23.765-1.382-22.345-10.792.839-5.546 6.52-8.014 9.105-10.11"/><path fill="#fff200" fill-rule="evenodd" d="M29.164 33.207c8.047-.45 18.683-3.288 27.63-7.464 4.917-2.295 9.393-5.05 12.797-8.156 6.078-5.545 2.24-11.255-.89-15.01 3.122.514 7.508 4.238 8.942 7.264 1.836 3.876 2.417 8.731.703 12.844-1.346 3.23-3.783 6.204-6.86 8.55-1.246.952-1.714 1.45-3.144 2.168-1.755.88-3.207 1.546-4.65 2.055-5.496 1.94-13.64 2.232-19.378 1.742-6.936-.593-9.774-1.583-15.15-3.993"/><path fill="#00a650" fill-rule="evenodd" d="M56.592 23.617c-3.808-5.73-11.743-7.27-20.712-7.122-5.693.092-11.924.937-17.721 2.335-3.037.733-5.88 1.468-8.623 2.646-3.338 1.433-7.234 2.93-9.536 3.54 4.732-4.97 16.987-14.889 35.047-18.852 13.56-2.974 37.956-3.766 35.448 6.346-.96 3.874-8.016 8.265-13.903 11.107"/><path fill="#fff200" fill-rule="evenodd" d="m16.321 24.996-4.647.688 4.097.828-.942 2.506 3.41-1.995 4.066.861-1.99-2.06 3.456-1.974-4.64.72-1.932-2.082-.878 2.508M13.297 35.121l-4.117.499 3.602.98-.878 2.44 3.05-1.839 3.572 1.011-1.716-2.116 3.087-1.818-4.113.532-1.664-2.133-.823 2.444M24.599 40.36l-3.547.109L24.1 41.58l-.853 2.017 2.686-1.338 3.021 1.135-1.385-1.937 2.718-1.313-3.541.138-1.341-1.948-.805 2.024"/><path fill="#fff" fill-rule="evenodd" d="M68.02 16.264c-.074-.061-.077-.053-.152-.112-2.303-1.866-5.503-3.491-8.545-4.435l-1.745 2.308c2.117.766 4.616 2.004 6.703 3.498.323.232.707.565 1.017.856.058.053.043.044.095.094.873-.635 2.16-1.697 2.628-2.209M53.259 10.193c-4.121-.62-7.876-.758-13.129-.097l-1.302 2.103c4.057-.376 8.988-.319 12.764.287l1.667-2.293M33.46 11.223l-1.017 1.694c-1.782.32-6.064 1.188-9.664 1.942-1.438.301-2.183.5-3.133.732 2.42-1.188 9.713-3.608 13.813-4.368"/><path fill="#00a650" fill-rule="evenodd" d="M56.714 31.594c-.316.58-.154.953.113 1.604.478 1.159-.33 1.992-1.173 2.224-1.461.4-3.87.168-5.044-1.43l-2.573 1.065-3.64-.576c2.113-.102 8.317-1.217 9.76-2.024l-5.144.83c-.607-.148-1.326-.44-1.693-.997-1.284-1.788 3.683-2.65 5.7-1.61 1.488.77 2.764.918 3.694.914M67.682 25.775c-.169.51-.007.761.269 1.196.49.776.419 1.948-.172 2.386-1.414 1.054-3.31.56-4.368-.394l-2.388 1.742-2.183.018c1.564-.55 6.052-2.786 7.035-3.72L62.14 28.78c-.47.024-1.397-.136-1.735-.478-1.163-1.074 2.436-2.838 4.06-2.497 1.196.25 2.522.18 3.217-.031M73.37 19.67c.101.412.31.582.77.827.727.39 1.214 1.19.935 1.812-.612 1.374-2.367 1.098-3.656.614l-1.112 1.79-1.742.47c.998-.733 3.57-3.328 3.923-4.228l-2.173 2.101c-.367.116-1.185.19-1.612.01-1.43-.551.64-2.611 2.102-2.699 1.078-.065 2.106-.397 2.565-.698"/></svg>