<svg xmlns="http://www.w3.org/2000/svg" width="243" height="120" viewBox="0 0 243 120"><path fill="#575656" d="M100.796 23.65h-3.095c.022-.455.034-.765.034-.943 0-4.337-2.341-6.5-7.022-6.5-1.953 0-3.517.488-4.716 1.475-1.186.988-1.785 2.297-1.785 3.916 0 1.064.321 1.919.953 2.552.644.643 1.953 1.408 3.928 2.295l5.236 2.408c3.228 1.497 5.413 2.917 6.545 4.26 1.142 1.342 1.708 3.183 1.708 5.524 0 3.184-1.153 5.746-3.45 7.699-2.296 1.952-5.302 2.928-9.03 2.928-2.185 0-4.781-.532-7.765-1.597-1.608-.566-2.807-.954-3.616-1.165.222-2.04.332-3.727.332-5.07l.067-3.283.022-1.11h3.129c0 2.73.254 4.704.776 5.913 1.131 2.585 3.472 3.872 7.021 3.872 2.342 0 4.172-.543 5.48-1.642 1.31-1.098 1.964-2.63 1.964-4.604 0-1.364-.366-2.429-1.087-3.194-.732-.777-2.207-1.642-4.437-2.618l-5.724-2.507c-4.914-2.142-7.377-5.148-7.377-8.998 0-2.773 1.087-5.058 3.262-6.833 2.185-1.774 4.98-2.662 8.408-2.662 2.895 0 6.423.743 10.56 2.24-.232 1.61-.355 3.662-.355 6.18zm24.415 14.953 10.594-23.828c1.364.145 2.85.222 4.46.222 1.907 0 3.915-.088 6.046-.255v2.108a38.494 38.494 0 0 0-1.432-.033c-1.131 0-1.863.233-2.23.676-.355.444-.532 1.376-.532 2.807V42.731c0 1.43.177 2.362.532 2.806.367.444 1.099.666 2.23.666.367 0 .843-.01 1.432-.033v2.118c-2.086-.155-4.45-.233-7.09-.233-2.617 0-4.969.078-7.055.233V46.17c.588.022 1.065.033 1.431.033 1.132 0 1.864-.222 2.23-.666.355-.444.533-1.376.533-2.806V20.233l-12.248 28.022h-.91l-12.346-27.789v22.265c0 1.43.178 2.362.532 2.806.367.444 1.099.666 2.23.666.366 0 .843-.01 1.431-.033v2.118a77.2 77.2 0 0 0-5.624-.233 77.2 77.2 0 0 0-5.624.233V46.17c.588.022 1.065.033 1.431.033 1.132 0 1.864-.222 2.23-.666.355-.444.532-1.375.532-2.806V20.3c0-1.431-.177-2.363-.532-2.807-.366-.443-1.098-.676-2.23-.676-.366 0-.843.01-1.43.033v-2.108c1.774.133 3.648.2 5.623.2 1.564 0 3.34-.055 5.325-.167zm45.037-14.953h-3.095c.022-.455.033-.765.033-.943 0-4.337-2.34-6.5-7.022-6.5-1.952 0-3.516.488-4.714 1.475-1.187.988-1.787 2.297-1.787 3.916 0 1.064.322 1.919.955 2.552.643.643 1.952 1.408 3.927 2.295l5.236 2.408c3.228 1.497 5.414 2.917 6.545 4.26 1.142 1.342 1.708 3.183 1.708 5.524 0 3.184-1.154 5.746-3.45 7.699-2.296 1.952-5.303 2.928-9.03 2.928-2.185 0-4.781-.532-7.765-1.597-1.609-.566-2.807-.954-3.616-1.165.222-2.04.332-3.727.332-5.07l.066-3.283.023-1.11h3.128c0 2.73.256 4.704.777 5.913 1.131 2.585 3.472 3.872 7.022 3.872 2.34 0 4.17-.543 5.48-1.642 1.309-1.098 1.964-2.63 1.964-4.604 0-1.364-.367-2.429-1.088-3.194-.732-.777-2.208-1.642-4.437-2.618l-5.724-2.507c-4.914-2.141-7.377-5.148-7.377-8.997 0-2.774 1.087-5.059 3.261-6.834 2.186-1.774 4.981-2.662 8.41-2.662 2.894 0 6.422.743 10.56 2.24-.233 1.61-.355 3.662-.355 6.18z"/><path fill="#7d8425" d="m202.306 39.28 2.53 1.11c-1.143 2.795-3.03 4.97-5.636 6.533-2.607 1.565-5.69 2.34-9.252 2.34-4.936 0-8.919-1.585-11.958-4.747-3.029-3.16-4.548-7.31-4.548-12.446 0-5.68 1.575-10.15 4.714-13.412 3.14-3.261 7.455-4.892 12.935-4.892 3.75 0 8.031.843 12.834 2.54l-.032 1.686.066 2.563.166 4.293.033 1.21-3.094-.334c0-3.372-.733-5.813-2.208-7.288-1.475-1.487-3.894-2.23-7.277-2.23-3.705 0-6.6 1.221-8.664 3.672-2.074 2.452-3.106 5.858-3.106 10.24 0 4.936 1.11 8.874 3.317 11.814 2.207 2.94 5.18 4.403 8.908 4.403 2.34 0 4.404-.62 6.212-1.852 1.797-1.232 3.15-2.972 4.06-5.202zM178.512.189h5.335l.71.543c2.474 1.908 4.548 3.683 6.245 5.303 1.099-1.131 2.041-2.03 2.83-2.696l3.083-2.607c.045-.012.233-.2.589-.543h5.357l-.876.843c-3.162 2.962-5.901 5.901-8.22 8.808l-.621.744h-4.326c-2.054-2.796-5.115-5.991-9.197-9.585ZM215.55 33.18v9.552c0 1.43.178 2.362.533 2.806.366.444 1.098.666 2.23.666.366 0 .843-.01 1.43-.033v2.118c-2.085-.155-4.447-.233-7.088-.233-2.618 0-4.97.078-7.055.233V46.17c.587.022 1.065.033 1.431.033 1.132 0 1.864-.222 2.23-.666.354-.444.532-1.376.532-2.806V20.3c0-1.431-.178-2.363-.533-2.807-.365-.443-1.097-.676-2.229-.676-.366 0-.844.01-1.43.033v-2.108c2.085.145 4.436.223 7.087.223l5.07-.101 4.16-.089c3.75 0 6.612.722 8.575 2.174 1.975 1.453 2.962 3.55 2.962 6.28 0 4.703-3.14 7.665-9.418 8.874 2.64 1.32 4.659 3.439 6.045 6.334l1.975 4.16.787 1.664c.366.799.722 1.32 1.065 1.553.355.244.91.355 1.698.355h1.331v2.086h-4.094c-2.173 0-3.671-.322-4.503-.977-.832-.643-1.797-2.262-2.873-4.836l-1.698-4.005c-.998-2.33-1.775-3.794-2.34-4.382-.555-.587-1.487-.876-2.762-.876zm0-2.44h1.498l.998.033c3.562 0 6.057-.521 7.51-1.564 1.453-1.043 2.175-2.818 2.175-5.336 0-2.463-.61-4.238-1.82-5.314-1.209-1.076-3.194-1.609-5.945-1.609-2.03 0-3.34.122-3.928.356-.321.155-.488.843-.488 2.052zM23.34 59.989a3.441 3.441 0 1 0 6.882 0 3.441 3.441 0 0 0-6.882 0zm17.516 0a4.552 4.552 0 1 0 9.104 0 4.552 4.552 0 0 0-9.104 0zm-33.814 0a2.024 2.024 0 1 0 4.049 0 2.024 2.024 0 0 0-4.05 0zM35.21 88.647a3.441 3.441 0 1 0 4.867-4.867 3.441 3.441 0 0 0-4.867 4.867zm12.386-12.385a4.552 4.552 0 1 0 6.438-6.438 4.552 4.552 0 0 0-6.438 6.438zm-23.91 23.91a2.024 2.024 0 1 0 2.863-2.862 2.024 2.024 0 0 0-2.863 2.861zM92.34 88.833a3.44 3.44 0 1 0-4.834-4.897 3.44 3.44 0 0 0 4.834 4.897zM80.035 76.367a4.551 4.551 0 1 0-6.395-6.48 4.553 4.553 0 0 0 6.395 6.48zm23.754 24.066a2.025 2.025 0 1 0-2.846-2.88 2.025 2.025 0 0 0 2.846 2.88zM54.1 50.089a4.553 4.553 0 1 0-6.398-6.48 4.553 4.553 0 0 0 6.397 6.48zM40.232 36.042a3.442 3.442 0 1 0-4.837-4.898 3.442 3.442 0 0 0 4.837 4.898zm-13.44-13.616a2.024 2.024 0 1 0-2.844-2.882 2.024 2.024 0 0 0 2.844 2.882zm37.076 78.092a3.441 3.441 0 1 0 0-6.882 3.441 3.441 0 0 0 0 6.882zm0-17.516a4.552 4.552 0 1 0 0-9.104 4.552 4.552 0 0 0 0 9.104zm0 33.814a2.025 2.025 0 1 0 0-4.05 2.025 2.025 0 0 0 0 4.05zm0-70.736a4.552 4.552 0 1 0 0-9.104 4.552 4.552 0 0 0 0 9.104zm0-19.738a3.441 3.441 0 1 0 0-6.882 3.441 3.441 0 0 0 0 6.882zm0-19.132a2.025 2.025 0 1 0 0-4.049 2.025 2.025 0 0 0 0 4.05"/><path fill="#575656" d="M84.007 57.521h-.536c.004-.076.005-.126.005-.149 0-.842-.453-1.264-1.36-1.264-.38 0-.69.09-.924.272a.854.854 0 0 0-.354.711c0 .225.066.408.196.55.13.142.385.303.768.485l.997.482c.589.285.99.559 1.204.817.215.259.322.604.322 1.034 0 .617-.211 1.108-.634 1.478-.422.37-.989.554-1.699.554-.421 0-.917-.093-1.487-.277a9.497 9.497 0 0 0-.643-.2c.037-.398.057-.733.057-1.004l.02-.685.004-.162h.53c0 .49.05.852.15 1.087.221.526.686.788 1.399.788.448 0 .8-.104 1.052-.314.252-.21.379-.499.379-.87 0-.27-.075-.488-.226-.652-.152-.166-.438-.345-.862-.54l-1.092-.5c-.476-.22-.822-.466-1.037-.74-.214-.273-.322-.604-.322-.997 0-.518.204-.943.609-1.273.405-.33.925-.496 1.56-.496.55 0 1.21.122 1.98.367a8.212 8.212 0 0 0-.066 1.16l.009.338zm1.691 3.423v-4.129c0-.27-.047-.457-.143-.557-.094-.102-.272-.154-.53-.154l-.138.006v-.311l.253.01.296.01.415.009.3.005.539-.01.496-.01.386-.009.61-.005c.521 0 .942.04 1.263.122.323.082.629.225.921.431.802.572 1.202 1.445 1.202 2.614 0 1.158-.406 2.057-1.216 2.7a2.915 2.915 0 0 1-.975.524c-.338.102-.764.153-1.276.153l-1.287-.02-.644-.014c-.484 0-.91.013-1.283.039v-.311h.139c.254 0 .43-.05.527-.154.097-.1.145-.286.145-.556v-.383Zm1.006-4.202v4.498l.005.153c0 .228.034.368.105.42.098.07.37.105.815.105.967 0 1.677-.228 2.127-.683.45-.453.677-1.167.677-2.135 0-.933-.226-1.646-.677-2.139-.45-.495-1.102-.742-1.95-.742-.55 0-.87.023-.963.066-.093.044-.139.197-.139.457zm7.239 2.614V61.326c0 .27.05.456.149.559.097.101.277.153.534.153h.128v.31c-.35-.024-.786-.035-1.311-.035-.519 0-.956.01-1.317.034v-.309h.139c.254 0 .43-.052.528-.153.095-.103.145-.288.145-.558V56.815c0-.267-.05-.453-.145-.556-.098-.102-.274-.155-.528-.155l-.139.006v-.311l.22.005.658.02.625.01.767-.014.802-.02c.699 0 1.23.138 1.597.415.367.277.55.678.55 1.206 0 .451-.15.83-.444 1.135-.296.306-.713.509-1.25.61.464.172.866.612 1.206 1.322l.396.83c.156.326.273.53.352.608.076.08.201.116.374.116.027 0 .078 0 .15-.003v.31h-.657c-.419 0-.706-.063-.86-.185-.155-.122-.337-.434-.55-.938l-.34-.795c-.19-.45-.356-.75-.496-.902-.108-.116-.303-.172-.585-.172h-.698Zm0-.386h.115l.372.01.571-.03c.891-.084 1.337-.54 1.337-1.362 0-.923-.496-1.384-1.488-1.384-.41 0-.67.03-.783.087a.176.176 0 0 0-.103.123 2.145 2.145 0 0 0-.021.39v2.166zm9.783-1.768v3.104c0 .716-.222 1.259-.666 1.63-.443.369-1.096.555-1.957.555-.74 0-1.333-.162-1.774-.482-.267-.194-.45-.414-.549-.661-.099-.246-.148-.608-.148-1.085v-3.448c0-.267-.049-.453-.145-.556-.098-.102-.274-.155-.527-.155l-.138.006v-.311a25.573 25.573 0 0 0 2.627 0v.31l-.13-.005c-.256 0-.435.053-.533.155-.1.103-.148.289-.148.556v3.362c0 .63.19 1.086.573 1.37.328.242.74.363 1.239.363.576 0 1.017-.142 1.326-.427.308-.285.463-.695.463-1.23V56.814c0-.267-.049-.453-.148-.556-.098-.102-.276-.155-.53-.155l-.133.006v-.311c.378.023.742.034 1.092.034.372 0 .689-.012.95-.034v.31c-.041-.002-.076-.005-.1-.005-.262 0-.434.072-.517.216-.085.141-.127.436-.127.882zm6.604 3.515h.42c-.054.495-.082.948-.082 1.358l.004.267-.456-.01-2.514-.018-2.509.019-.457.01v-.23l4.496-5.845h-2.502c-.477 0-.794.065-.949.196-.156.132-.281.436-.377.914h-.42c.062-.388.096-.847.096-1.374l-.005-.206.443.011 2.394.024 2.4-.024.438-.01v.249l-4.545 5.835h2.827c.437 0 .737-.072.897-.216.163-.145.297-.463.4-.95zm-4.496-6.773h.911c.288.165.472.276.547.33l.41.291.068.043a.75.75 0 0 1 .076-.048l.395-.287c.093-.066.279-.175.559-.329h.86c-.638.43-1.1.805-1.39 1.125h-.996a10.204 10.204 0 0 0-1.44-1.125zm10.172 1.854-.009.373c0 .419.028.81.082 1.173h-.42c-.042-.405-.153-.682-.337-.84-.183-.153-.49-.231-.923-.231h-1.053c-.197 0-.316.015-.355.05-.04.032-.06.132-.06.296v2.113h1.107c.387 0 .65-.064.791-.19.14-.128.21-.366.21-.717h.363c-.036.433-.055.8-.055 1.102 0 .349.019.719.055 1.106h-.363c0-.362-.06-.6-.181-.711-.122-.113-.378-.17-.768-.17h-1.16v2.345c0 .162.012.266.037.31.024.044.08.067.169.067H114.824c.827 0 1.284-.446 1.374-1.34h.42l-.03.143c-.13.627-.227 1.182-.29 1.665l-.401-.01-2.198-.018-2.18.019-.406.01v-.307l.169.006c.238 0 .405-.052.5-.16.096-.106.143-.29.143-.55v-4.517c0-.267-.05-.45-.148-.553-.098-.102-.275-.152-.53-.152l-.134.005V55.8l.382.01 2.056.025 2.074-.024.382-.011zm7.136 6.639h-.267l-4.66-5.575.067 4.082.005.383c0 .263.05.447.155.553.102.104.28.156.532.156h.142v.311a14.316 14.316 0 0 0-2.136 0v-.31h.138c.254 0 .43-.05.528-.154.096-.1.145-.286.145-.556v-4.893c-.124-.217-.395-.325-.811-.325v-.31c.317.022.603.034.858.034.252 0 .522-.012.81-.035l4.088 4.785-.091-3.64c0-.362-.026-.592-.079-.693-.052-.1-.174-.15-.364-.15l-.386.009v-.311l.171.01c.276.016.573.025.887.025.194 0 .446-.008.758-.025l.19-.01v.31l-.256-.008c-.197 0-.317.042-.36.128-.044.087-.065.324-.065.716zm2.183-1.493v-4.129c0-.267-.049-.453-.148-.556-.098-.102-.275-.155-.53-.155l-.133.006v-.311a25.627 25.627 0 0 0 2.628 0v.31l-.134-.005c-.254 0-.431.053-.529.155-.1.103-.148.289-.148.556v4.512c0 .27.049.455.148.558.098.101.275.151.53.151h.133v.311a20.643 20.643 0 0 0-1.312-.034c-.495 0-.935.01-1.316.034v-.31h.134c.254 0 .431-.05.53-.152.098-.103.147-.288.147-.558zm2.37-7.054v.306l-.143.072c-.75.385-1.334.66-1.75.826h-.786a11.636 11.636 0 0 0 1.663-1.204zm6.215 8.457-2.513-5.866.067 4.465c0 .464.042.761.126.893.084.132.276.2.575.2h.139v.308c-.334-.023-.69-.034-1.065-.034-.371 0-.726.01-1.063.034v-.309h.138c.254 0 .43-.052.528-.153.096-.103.144-.288.144-.558v-4.383c0-.392-.02-.629-.064-.716-.043-.086-.163-.128-.36-.128l-.304.005v-.306c.353.023.667.034.943.034.34 0 .68-.012 1.02-.034l2.042 4.873 2.074-4.873a13.895 13.895 0 0 0 1.955 0v.31l-.386-.009c-.193 0-.314.045-.358.13-.044.089-.067.327-.067.714v4.383c0 .27.049.456.148.559.098.101.276.153.53.153h.133v.31a22.381 22.381 0 0 0-1.312-.035c-.47 0-.908.01-1.315.034v-.309h.139c.253 0 .429-.052.527-.153.095-.103.145-.288.145-.559V56.56l-2.437 5.79h-.129zm5.826-1.403v-4.129c0-.267-.049-.453-.148-.556-.098-.102-.275-.155-.529-.155l-.134.006v-.311a25.63 25.63 0 0 0 2.628 0v.31l-.133-.005c-.254 0-.432.053-.53.155-.099.103-.148.289-.148.556v4.512c0 .27.05.455.148.558.098.101.276.151.53.151h.133v.311a20.638 20.638 0 0 0-1.312-.034c-.494 0-.934.01-1.316.034v-.31h.134c.254 0 .431-.05.53-.152.098-.103.147-.288.147-.558zm2.371-7.054v.306l-.144.072c-.75.385-1.333.66-1.75.826h-.785a11.678 11.678 0 0 0 1.663-1.204zm4.189 3.631h-.536l.004-.149c0-.842-.452-1.264-1.359-1.264-.38 0-.69.09-.925.272a.851.851 0 0 0-.353.711c0 .225.065.408.195.55.131.142.386.303.769.485l.996.482c.59.285.99.559 1.204.817.216.259.323.604.323 1.034 0 .617-.212 1.108-.635 1.478-.422.37-.988.554-1.697.554-.423 0-.919-.093-1.488-.277a9.172 9.172 0 0 0-.644-.2c.038-.398.057-.733.057-1.004l.02-.685.004-.162h.53c0 .49.05.852.15 1.087.22.526.686.788 1.4.788.447 0 .798-.104 1.05-.314.253-.21.38-.499.38-.87 0-.27-.075-.488-.226-.652-.152-.166-.438-.345-.861-.54l-1.093-.5c-.477-.22-.822-.466-1.037-.74-.215-.273-.322-.604-.322-.997 0-.518.204-.943.609-1.273.405-.33.925-.496 1.56-.496.551 0 1.21.122 1.98.367a8.195 8.195 0 0 0-.067 1.16l.011.338zm3.861-1.25v5.056c0 .27.05.455.15.558.1.101.28.151.542.151h.3v.306l-.381-.01-1.125-.028-1.132.029-.352.01v-.307h.3c.26 0 .441-.05.542-.151.1-.103.15-.288.15-.558V56.27h-.586c-.5 0-.837.066-1.01.2-.171.133-.273.402-.302.806l-.014.168h-.42c.05-.579.076-1.038.076-1.374l-.01-.273.406.011 2.352.024 2.375-.024.405-.01c-.007.14-.009.232-.009.277 0 .393.026.85.077 1.369h-.42l-.009-.168c-.03-.404-.13-.673-.306-.806-.175-.134-.511-.2-1.01-.2h-.587zm8.761 6.166h-.266l-4.66-5.575.068 4.082.004.383c0 .263.05.447.155.553.102.104.28.156.532.156h.142v.311a14.312 14.312 0 0 0-2.136 0v-.31h.139c.253 0 .429-.05.527-.154.096-.1.145-.286.145-.556v-4.893c-.124-.217-.394-.325-.811-.325v-.31c.318.022.604.034.858.034.252 0 .522-.012.81-.035l4.088 4.785-.091-3.64c0-.362-.026-.592-.079-.693-.052-.1-.173-.15-.364-.15l-.386.009v-.311l.17.01c.278.016.574.025.888.025.194 0 .446-.008.759-.025l.19-.01v.31l-.257-.008c-.197 0-.317.042-.36.128-.043.087-.065.324-.065.716v5.493zm2.184-1.493v-4.129c0-.267-.049-.453-.148-.556-.098-.102-.275-.155-.53-.155l-.133.006v-.311a25.59 25.59 0 0 0 2.627 0v.31l-.133-.005c-.254 0-.431.053-.53.155-.098.103-.147.289-.147.556v4.512c0 .27.049.455.148.558.098.101.275.151.53.151h.132v.311a20.648 20.648 0 0 0-1.312-.034c-.495 0-.934.01-1.315.034v-.31h.133c.255 0 .432-.05.53-.152.099-.103.148-.288.148-.558zm2.37-7.054v.306l-.144.072c-.75.385-1.333.66-1.75.826h-.786a11.614 11.614 0 0 0 1.664-1.204zm5.518 6.827.425.165c-.182.48-.53.87-1.044 1.167-.515.298-1.1.447-1.75.447a3.28 3.28 0 0 1-1.698-.458c-.964-.567-1.445-1.517-1.445-2.853 0-1.098.299-1.958.898-2.587.598-.629 1.422-.942 2.47-.942.707 0 1.508.14 2.401.424l-.004.302.015.538.034.9.003.173-.534-.054c0-.635-.146-1.1-.437-1.391-.294-.293-.759-.44-1.399-.44-.734 0-1.303.24-1.707.718-.404.478-.606 1.154-.606 2.024 0 .927.223 1.673.667 2.24.446.569 1.032.852 1.756.852.436 0 .828-.11 1.176-.327.348-.218.607-.517.78-.898zm6.063-1.612h-3.393v2.222c0 .27.049.455.149.558.097.101.275.151.529.151h.133v.311c-.36-.023-.796-.034-1.312-.034-.492 0-.93.01-1.315.034v-.31h.134c.254 0 .43-.05.529-.152.099-.103.148-.288.148-.558V56.834c0-.273-.05-.462-.148-.568-.098-.104-.275-.157-.53-.157l-.133.006v-.317a25.612 25.612 0 0 0 2.627 0v.311l-.133-.005c-.254 0-.432.053-.53.155-.099.103-.148.289-.148.555v1.871h3.393v-1.851c0-.274-.05-.463-.145-.569-.098-.103-.274-.156-.528-.156l-.138.005v-.316c.451.023.891.035 1.315.035.466 0 .902-.012 1.312-.035v.311l-.138-.005c-.254 0-.43.052-.527.155-.096.102-.145.288-.145.555V61.326c0 .27.05.456.145.558.097.102.273.152.527.152h.138v.31c-.35-.022-.786-.033-1.312-.033-.49 0-.93.01-1.315.034v-.311h.138c.254 0 .43-.05.528-.152.096-.102.145-.288.145-.558v-2.222zm9.003-1.584h-.536c.004-.076.005-.126.005-.149 0-.842-.452-1.264-1.359-1.264-.38 0-.69.09-.925.272a.853.853 0 0 0-.353.711c0 .225.065.408.195.55.13.142.386.303.769.485l.996.482c.59.285.99.559 1.204.817.215.259.323.604.323 1.034 0 .617-.212 1.108-.635 1.478-.422.37-.988.554-1.698.554-.421 0-.918-.093-1.488-.277a9.387 9.387 0 0 0-.643-.2c.038-.398.058-.733.058-1.004l.02-.685.003-.162h.53c0 .49.05.852.15 1.087.22.526.686.788 1.399.788.448 0 .799-.104 1.051-.314.253-.21.38-.499.38-.87 0-.27-.075-.488-.226-.652-.152-.166-.438-.345-.861-.54l-1.093-.5c-.477-.22-.821-.466-1.037-.74-.215-.273-.322-.604-.322-.997 0-.518.203-.943.609-1.273.405-.33.925-.496 1.56-.496.55 0 1.21.122 1.98.367a8.204 8.204 0 0 0-.066 1.16l.009.338zm4.616 2.332h-2.284l-.655 1.597a.88.88 0 0 0-.074.31c0 .109.044.182.135.223.091.039.255.058.493.058l.195-.005v.31a14.68 14.68 0 0 0-1.072-.033c-.401 0-.759.01-1.073.034v-.316l.1.005c.225 0 .382-.042.47-.126.087-.083.212-.315.374-.694l2.418-5.56h.449l2.39 5.893c.084.21.162.344.23.402.069.058.183.085.346.085.026 0 .064-.001.118-.005v.316a22.492 22.492 0 0 0-1.334-.034c-.508 0-.954.01-1.335.034v-.311h.2c.404 0 .605-.087.605-.262a.874.874 0 0 0-.052-.257l-.105-.287-.539-1.378zm-.166-.42-.95-2.451-.997 2.451zm6.594 2.914-2.513-5.866.067 4.465c0 .464.042.761.127.893.083.132.275.2.575.2h.138v.308a15.335 15.335 0 0 0-1.065-.034c-.37 0-.725.01-1.063.034v-.309h.139c.254 0 .43-.052.528-.153.095-.103.144-.288.144-.558v-4.383c0-.392-.02-.629-.065-.716-.043-.086-.163-.128-.36-.128l-.304.005v-.306c.353.023.667.034.944.034.34 0 .68-.012 1.021-.034l2.04 4.873 2.075-4.873a13.891 13.891 0 0 0 1.954 0v.31l-.385-.009c-.194 0-.315.045-.358.13-.045.089-.067.327-.067.714v4.383c0 .27.049.456.148.559.098.101.275.153.53.153h.132v.31a22.373 22.373 0 0 0-1.311-.035c-.47 0-.909.01-1.316.034v-.309h.14c.253 0 .429-.052.526-.153.096-.103.145-.288.145-.559V56.56l-2.437 5.79h-.129zm8.355-6.691c1.068 0 1.903.3 2.503.903.6.602.902 1.44.902 2.512 0 1.074-.3 1.914-.899 2.516-.598.602-1.435.904-2.506.904-1.068 0-1.904-.302-2.504-.904-.6-.602-.902-1.442-.902-2.516 0-1.072.302-1.91.902-2.512.6-.602 1.436-.903 2.504-.903zm0 .452c-.71 0-1.265.264-1.667.79-.402.525-.604 1.25-.604 2.173 0 .926.202 1.652.604 2.177.402.526.957.79 1.667.79.71 0 1.264-.264 1.667-.79.402-.525.604-1.251.604-2.177 0-.924-.202-1.647-.606-2.174-.403-.525-.96-.789-1.665-.789zm8.079 1.413h-.536c.004-.076.005-.126.005-.149 0-.842-.452-1.264-1.359-1.264-.38 0-.69.09-.925.272a.851.851 0 0 0-.353.711c0 .225.065.408.196.55.13.142.385.303.768.485l.996.482c.59.285.99.559 1.205.817.215.259.323.604.323 1.034 0 .617-.213 1.108-.636 1.478-.422.37-.988.554-1.697.554-.423 0-.918-.093-1.488-.277a9.23 9.23 0 0 0-.644-.2c.038-.398.058-.733.058-1.004l.019-.685.004-.162h.53c0 .49.05.852.151 1.087.22.526.685.788 1.399.788.447 0 .799-.104 1.05-.314.253-.21.38-.499.38-.87 0-.27-.074-.488-.226-.652-.151-.166-.438-.345-.86-.54l-1.094-.5c-.477-.22-.822-.466-1.037-.74-.214-.273-.322-.604-.322-.997 0-.518.204-.943.609-1.273.406-.33.925-.496 1.561-.496.55 0 1.21.122 1.98.367a8.135 8.135 0 0 0-.067 1.16l.009.338zm2.698 2.098v1.708c0 .27.05.455.153.558.1.101.283.151.544.151h.365v.306l-1.563-.029c-.493 0-.931.01-1.316.034v-.31h.139c.253 0 .43-.05.526-.152.097-.103.146-.288.146-.558V56.815c0-.267-.049-.453-.146-.556-.097-.102-.273-.155-.526-.155l-.14.006v-.311c.045 0 .1.002.167.005l.45.025c.174.005.379.009.615.009l.739-.015.691-.025c.695 0 1.223.08 1.578.238.65.293.974.842.974 1.646 0 .63-.2 1.122-.601 1.477-.4.355-.959.532-1.673.532-.33 0-.702-.024-1.122-.072zm0-.372c.206.047.444.071.716.071.67 0 1.132-.176 1.382-.53.194-.272.292-.614.292-1.024 0-.487-.137-.868-.41-1.143-.275-.275-.652-.412-1.136-.412-.346 0-.59.03-.73.09-.07.03-.105.103-.105.22l-.009.205v2.523zm5.541.109V61.326c0 .27.05.456.148.559.098.101.277.153.535.153h.128v.31c-.35-.024-.787-.035-1.312-.035-.518 0-.956.01-1.316.034v-.309h.139c.254 0 .43-.052.527-.153.097-.103.146-.288.146-.558V56.815c0-.267-.05-.453-.146-.556-.097-.102-.273-.155-.527-.155l-.139.006v-.311l.22.005.658.02.625.01.767-.014.802-.02c.698 0 1.23.138 1.597.415.367.277.549.678.549 1.206 0 .451-.148.83-.444 1.135-.296.306-.712.509-1.25.61.465.172.867.612 1.207 1.322l.395.83c.157.326.274.53.352.608.076.08.202.116.375.116.027 0 .078 0 .15-.003v.31h-.657c-.42 0-.707-.063-.861-.185-.155-.122-.337-.434-.55-.938l-.34-.795c-.19-.45-.355-.75-.495-.902-.108-.116-.303-.172-.586-.172h-.697zm0-.386h.114l.372.01.572-.03c.89-.084 1.337-.54 1.337-1.362 0-.923-.497-1.384-1.488-1.384-.41 0-.67.03-.783.087a.178.178 0 0 0-.103.123 2.08 2.08 0 0 0-.02.39v2.166zm8.198.883h-2.283l-.655 1.597a.858.858 0 0 0-.075.31c0 .109.044.182.136.223.09.039.255.058.492.058l.196-.005v.31a14.666 14.666 0 0 0-1.073-.033c-.4 0-.758.01-1.073.034v-.316l.101.005c.225 0 .381-.042.47-.126.087-.083.211-.315.374-.694l2.417-5.56h.45l2.389 5.893c.084.21.163.344.231.402.068.058.182.085.345.085.026 0 .065-.001.119-.005v.316a22.518 22.518 0 0 0-1.335-.034c-.508 0-.953.01-1.335.034v-.311h.2c.404 0 .606-.087.606-.262a.862.862 0 0 0-.052-.257l-.106-.287-.539-1.378zm-.166-.42-.949-2.451-.997 2.451zm1.501-5.54v.303l-.148.072c-.747.386-1.328.66-1.745.826h-.786a11.671 11.671 0 0 0 1.663-1.201zm4.545 8.598h-.42l-2.194-5.056-.195-.482c-.15-.359-.281-.59-.397-.692-.117-.101-.305-.152-.567-.152v-.31a26.486 26.486 0 0 0 2.686 0v.31l-.119.006c-.266.012-.436.03-.508.053-.071.025-.107.077-.107.156 0 .085.023.188.071.305l.11.276 1.754 4.193 1.565-4.096c.127-.332.19-.552.19-.665 0-.123-.106-.192-.32-.205l-.313-.023h-.134v-.31a13.755 13.755 0 0 0 1.955 0v.31h-.08c-.262 0-.446.13-.55.387l-.108.276-2.319 5.719z"/><path fill="#575656" fill-rule="evenodd" d="M63.869 70.051c5.645 0 10.222-4.576 10.222-10.221 0-5.646-4.577-10.221-10.222-10.221-5.646 0-10.222 4.575-10.222 10.22 0 5.646 4.576 10.222 10.222 10.222"/></svg>