<svg xmlns="http://www.w3.org/2000/svg" class="w-full h-auto" width="182.942" height="38.021" viewBox="0 0 182.942 38.021"><path d="M76.948 29.985a1.674 1.674 0 101.675 1.674 1.513 1.513 0 00-1.675-1.674zm105.994 1.482v1.387c0 .143-.1.239-.287.239h-2.584a3.615 3.615 0 01-3.828-3.825V17.695h-3.828c-.191 0-.239-.048-.239-.287v-1.386c0-.192.048-.287.239-.287h5.838a.276.276 0 01.287.287v13.006a1.874 1.874 0 002.06 2.152h2.1c.147.048.242.096.242.287zm-21.916-1.578c0-1.291.765-1.961 2.44-1.961h2.68v2.822a6.533 6.533 0 01-3.015.765c-1.431 0-2.105-.67-2.105-1.626zm3.11-6.408c1.387 0 2.058.717 2.058 2.152v.622h-2.632c-3.158 0-4.833 1.291-4.833 3.73 0 1.913 1.387 3.252 3.972 3.252a6.21 6.21 0 003.732-1.2l.192.765c.1.191.143.287.335.287h1.2a.254.254 0 00.287-.287v-7.408a3.641 3.641 0 00-3.876-3.874h-4.546a.254.254 0 00-.287.287v1.387a.254.254 0 00.287.287zm-15.122 0v5.595a1.839 1.839 0 002.058 2.1h2.628c.143 0 .239.1.239.287v1.387a.226.226 0 01-.239.239h-3.11a3.567 3.567 0 01-3.828-3.826v-5.782h-3.442c-.191 0-.239-.1-.239-.239v-1.387c0-.191.1-.287.239-.287h3.445v-3.825c0-.191.1-.239.239-.239h1.722c.192 0 .287.1.287.239v3.826h4.687c.143 0 .239.1.239.287v1.387c0 .191-.1.239-.239.239zm-19.045 9.373c0 .143.1.239.287.239h9.714c.192 0 .287-.048.287-.239v-1.386c0-.192-.1-.239-.287-.239h-3.445v-9.374c0-.191-.048-.287-.239-.287h-6.029a.276.276 0 00-.287.287v1.387c0 .143.1.239.287.239h4.067v7.747h-4.067c-.192 0-.287.048-.287.239zm-9.906-1.435a6.24 6.24 0 002.584-.717V24.01a5.017 5.017 0 00-2.488-.717c-1.914 0-2.871 1.435-2.871 4.113-.048 2.917.957 4.017 2.775 4.017zm-.43-9.994a4.974 4.974 0 013.254 1.243l.239-.765a.316.316 0 01.335-.287h1.2c.143 0 .239.1.239.287v12.29a3.6 3.6 0 01-3.876 3.825h-4.594a.254.254 0 01-.287-.287v-1.339c0-.191.1-.239.287-.239h4.115a1.874 1.874 0 002.058-2.152v-1.769a5.721 5.721 0 01-3.206 1c-3.206 0-4.5-2.2-4.5-5.882.003-3.582 1.386-5.925 4.736-5.925zm-18.615 11.429c0 .143.1.239.287.239h9.715c.191 0 .287-.048.287-.239v-1.386c0-.192-.1-.239-.287-.239h-3.446v-9.374c0-.191-.048-.287-.239-.287H101.3a.276.276 0 00-.287.287v1.387c0 .143.1.239.287.239h4.068v7.747H101.3c-.191 0-.287.048-.287.239zm-9.666-1.435a6.059 6.059 0 002.584-.717V24.01a5.015 5.015 0 00-2.488-.717c-1.915 0-2.872 1.435-2.872 4.113-.048 2.917.958 4.017 2.776 4.017zm-.431-9.994a4.93 4.93 0 012.967 1v-6.308c0-.192.1-.287.239-.287h1.723c.144 0 .239.1.239.287v16.737c0 .191-.1.239-.239.239h-1.2c-.191 0-.239-.1-.335-.287l-.239-.765a5.669 5.669 0 01-3.446 1.2c-3.206 0-4.5-2.2-4.5-5.882.048-3.587 1.436-5.93 4.785-5.93zm-25.362 5.93c0 2.821-.909 4.16-2.871 4.16s-2.871-1.339-2.871-4.16.909-4.161 2.871-4.161 2.871 1.339 2.871 4.161zm2.344 0c0-3.491-1.483-5.93-5.216-5.93s-5.216 2.439-5.216 5.93c0 3.538 1.484 5.929 5.216 5.929s5.213-2.391 5.213-5.929zm-13.59 5.738h-2.489a.359.359 0 01-.217-.1l-.07-.048-5.837-5.59v5.5c0 .191-.048.239-.239.239h-1.724c-.192 0-.287-.1-.287-.239V16.117a.253.253 0 01.287-.287h1.723c.192 0 .239.1.239.287v10.712l5.695-5.119c.048-.1.143-.1.239-.1h2.249c.239 0 .287.239.143.383l-5.79 5.117 6.221 5.7c.144.044.044.283-.143.283zm-24.836-2.2l-.383 1.243a.576.576 0 00.143.478 10.639 10.639 0 004.4.718c3.589 0 5.216-1.292 5.216-3.443 0-2.277-2.369-2.879-4.421-3.4-1.567-.4-2.949-.749-2.949-1.764 0-.908.622-1.435 2.632-1.435a10.2 10.2 0 013.589.67c.192.1.335.048.383-.1l.383-1.291a.25.25 0 00-.191-.383 10.032 10.032 0 00-4.116-.765c-3.4 0-4.929 1.291-4.929 3.443 0 2.277 2.369 2.88 4.42 3.4 1.567.4 2.949.749 2.949 1.764 0 .861-.622 1.387-2.919 1.387a9.818 9.818 0 01-3.828-.67c-.143-.048-.335-.048-.383.143zm-9.715-7.746c-1.722 0-2.823 1.052-2.967 3.348h5.6c.048-2.057-.718-3.348-2.632-3.348zm4.977 4.017v.67c0 .191-.1.287-.239.287h-7.7c.192 2.152 1.34 3.252 3.35 3.252a8.078 8.078 0 003.445-.717.253.253 0 01.383.143l.383 1.243c.048.143.048.287-.192.383a8.855 8.855 0 01-4.115.861c-3.446 0-5.647-2.2-5.647-5.929 0-3.491 1.723-5.93 5.408-5.93s4.924 2.246 4.924 5.736zM9.953 22.286a9.891 9.891 0 00-4.211-.861c-3.4 0-5.695 2.2-5.742 5.977 0 3.682 2.3 5.93 5.694 5.93a9 9 0 004.211-.861c.192-.1.287-.239.192-.382l-.383-1.243a.284.284 0 00-.431-.143 8.85 8.85 0 01-3.445.67c-2.249 0-3.493-1.387-3.493-4.017 0-2.583 1.244-3.969 3.493-3.969a7.921 7.921 0 013.445.669.284.284 0 00.431-.143l.383-1.243c.096-.193.047-.288-.144-.384zM133.366 8.61a1.535 1.535 0 011.675-1.674 1.513 1.513 0 011.675 1.674 1.675 1.675 0 01-3.35 0zm-27.228-1.674a1.535 1.535 0 00-1.675 1.674 1.513 1.513 0 001.675 1.674 1.535 1.535 0 001.675-1.674 1.513 1.513 0 00-1.675-1.674zM3.924 10.044c.192 0 .239 0 .431-.191l4.832-4.877L4.354.194a.718.718 0 00-.206-.172.648.648 0 00-.225-.02H1.818a.226.226 0 00-.192.382l4.69 4.687-4.594 4.59a.236.236 0 00.192.383z" fill="#0a0650" fill-rule="evenodd"/></svg>
